<svg width="40.000000" height="40.000000" viewBox="0 0 40 40" fill="none" xmlns="http://www.w3.org/2000/svg" xmlns:xlink="http://www.w3.org/1999/xlink">
	<desc>
			Created with Pixso.
	</desc>
	<defs>
		<clipPath id="clip1_491">
			<rect id="facebook-f" rx="0.000000" width="15.666668" height="15.666668" transform="translate(12.166626 12.166504)" fill="white" fill-opacity="0"/>
		</clipPath>
	</defs>
	<rect id="facebook-f" rx="0.000000" width="15.666668" height="15.666668" transform="translate(12.166626 12.166504)" fill="#000000" fill-opacity="0"/>
	<g clip-path="url(#clip1_491)">
		<path id="Vector" d="M23.87 21.04L24.34 18.02L21.44 18.02L21.44 16.06C21.44 15.24 21.85 14.43 23.14 14.43L24.46 14.43L24.46 11.87C24.46 11.87 23.26 11.66 22.12 11.66C19.74 11.66 18.18 13.11 18.18 15.72L18.18 18.02L15.53 18.02L15.53 21.04L18.18 21.04L18.18 28.33L21.44 28.33L21.44 21.04L23.87 21.04Z" fill="#697687" fill-opacity="1.000000" fill-rule="nonzero"/>
		<path id="Vector" d="M21.49 21.04L23.87 21.04L24.33 18.07L24.34 18.02L21.44 18.02L21.44 16.06C21.44 15.24 21.85 14.43 23.14 14.43L24.46 14.43L24.46 11.87C24.46 11.87 23.26 11.66 22.12 11.66C19.74 11.66 18.18 13.11 18.18 15.72L18.18 18.02L15.53 18.02L15.53 21.04L18.18 21.04L18.18 28.33L21.44 28.33L21.44 21.04L21.49 21.04ZM21.39 28.28L21.39 20.99L23.83 20.99L24.28 18.07L21.39 18.07L21.39 16.06Q21.39 15.4 21.71 14.97Q21.74 14.94 21.77 14.91Q21.82 14.84 21.89 14.79Q22.33 14.38 23.14 14.38L24.41 14.38L24.41 11.91Q24.12 11.86 23.71 11.81Q22.83 11.71 22.12 11.71Q21.24 11.71 20.52 11.97Q19.93 12.19 19.48 12.57Q19.38 12.65 19.29 12.75Q19.24 12.8 19.18 12.86Q18.75 13.34 18.51 14Q18.23 14.76 18.23 15.72L18.23 18.07L15.58 18.07L15.58 20.99L18.23 20.99L18.23 28.28L21.39 28.28Z" fill="#697687" fill-opacity="1.000000" fill-rule="evenodd"/>
	</g>
	<rect id="Rectangle 68" x="0.500000" y="0.500000" rx="19.500000" width="39.000000" height="39.000000" stroke="#697687" stroke-opacity="1.000000" stroke-width="1.000000"/>
</svg>
