<svg width="40.000000" height="40.000000" viewBox="0 0 40 40" fill="none" xmlns="http://www.w3.org/2000/svg" xmlns:xlink="http://www.w3.org/1999/xlink">
	<desc>
			Created with Pixso.
	</desc>
	<defs>
		<clipPath id="clip1_495">
			<rect id="instagram" rx="0.000000" width="15.666668" height="15.666668" transform="translate(12.351929 12.351562)" fill="white" fill-opacity="0"/>
		</clipPath>
	</defs>
	<rect id="instagram" rx="0.000000" width="15.666668" height="15.666668" transform="translate(12.351929 12.351562)" fill="#000000" fill-opacity="0"/>
	<g clip-path="url(#clip1_495)">
		<path id="Vector" d="M20.18 16.44C18.11 16.44 16.44 18.11 16.44 20.18C16.44 22.25 18.11 23.92 20.18 23.92C22.25 23.92 23.92 22.25 23.92 20.18C23.92 18.11 22.25 16.44 20.18 16.44ZM20.18 22.61C18.85 22.61 17.75 21.52 17.75 20.18C17.75 18.84 18.84 17.75 20.18 17.75C21.52 17.75 22.62 18.84 22.62 20.18C22.62 21.52 21.52 22.61 20.18 22.61ZM24.95 16.28C24.95 16.77 24.56 17.16 24.08 17.16C23.59 17.16 23.2 16.77 23.2 16.28C23.2 15.8 23.59 15.41 24.08 15.41C24.56 15.41 24.95 15.8 24.95 16.28ZM27.43 17.17C27.37 16 27.1 14.97 26.25 14.11C25.4 13.26 24.36 12.99 23.19 12.93C21.99 12.87 18.38 12.87 17.17 12.93C16.01 12.99 14.97 13.26 14.12 14.11C13.26 14.96 13 16 12.94 17.17C12.87 18.37 12.87 21.98 12.94 23.18C12.99 24.35 13.26 25.39 14.12 26.24C14.97 27.09 16 27.36 17.17 27.42C18.38 27.49 21.99 27.49 23.19 27.42C24.36 27.36 25.4 27.1 26.25 26.24C27.1 25.39 27.37 24.35 27.43 23.18C27.49 21.98 27.49 18.37 27.43 17.17ZM25.87 24.48C25.62 25.11 25.12 25.61 24.48 25.86C23.52 26.24 21.24 26.16 20.18 26.16C19.12 26.16 16.84 26.24 15.88 25.86C15.25 25.61 14.75 25.12 14.5 24.48C14.12 23.52 14.2 21.24 14.2 20.18C14.2 19.12 14.12 16.83 14.5 15.88C14.75 15.24 15.24 14.75 15.88 14.49C16.84 14.11 19.12 14.2 20.18 14.2C21.24 14.2 23.53 14.11 24.48 14.49C25.12 14.74 25.61 15.24 25.87 15.88C26.25 16.84 26.16 19.12 26.16 20.18C26.16 21.24 26.25 23.52 25.87 24.48Z" fill="#697687" fill-opacity="1.000000" fill-rule="nonzero"/>
		<path id="Vector" d="M27.43 17.17C27.37 16 27.1 14.97 26.25 14.11C25.4 13.26 24.36 12.99 23.19 12.93C21.99 12.87 18.38 12.87 17.17 12.93C16.01 12.99 14.97 13.26 14.12 14.11C13.26 14.96 13 16 12.94 17.17C12.87 18.37 12.87 21.98 12.94 23.18C12.99 24.35 13.26 25.39 14.12 26.24C14.97 27.09 16 27.36 17.17 27.42C18.38 27.49 21.99 27.49 23.19 27.42C24.36 27.36 25.4 27.1 26.25 26.24C27.1 25.39 27.37 24.35 27.43 23.18C27.49 21.98 27.49 18.37 27.43 17.17ZM25.63 13.67Q25.94 13.87 26.21 14.15L26.21 14.15Q26.5 14.43 26.71 14.75Q26.94 15.12 27.09 15.54Q27.33 16.22 27.38 17.17Q27.43 18.07 27.43 20.18Q27.43 22.28 27.38 23.18Q27.33 24.13 27.09 24.82Q26.94 25.25 26.69 25.62Q26.49 25.93 26.21 26.21Q25.93 26.49 25.61 26.7Q25.24 26.94 24.82 27.08Q24.14 27.33 23.19 27.37Q22.29 27.42 20.18 27.42Q18.08 27.42 17.17 27.37Q16.22 27.32 15.54 27.08Q15.13 26.94 14.77 26.7Q14.44 26.49 14.15 26.21Q13.87 25.93 13.66 25.6Q13.42 25.24 13.27 24.82Q13.03 24.13 12.99 23.18Q12.93 22.28 12.93 20.18Q12.93 18.07 12.99 17.17Q13.03 16.22 13.27 15.54Q13.43 15.1 13.67 14.73Q13.88 14.42 14.15 14.14Q14.43 13.86 14.76 13.65Q15.12 13.42 15.54 13.27Q16.23 13.03 17.18 12.98Q18.08 12.93 20.18 12.93Q22.29 12.93 23.19 12.98Q24.14 13.03 24.82 13.27Q25.25 13.42 25.63 13.67ZM22.72 26.19Q23.95 26.13 24.5 25.91L24.5 25.91Q24.82 25.78 25.08 25.58Q25.23 25.48 25.36 25.35Q25.5 25.21 25.62 25.04Q25.8 24.79 25.92 24.5Q26.13 23.95 26.19 22.72Q26.23 22.02 26.22 20.7Q26.21 20.33 26.21 20.18Q26.21 20.03 26.22 19.66Q26.23 18.34 26.19 17.64Q26.13 16.41 25.92 15.86Q25.79 15.54 25.59 15.28Q25.48 15.13 25.35 15Q25.21 14.86 25.05 14.74Q24.8 14.56 24.5 14.44Q23.95 14.23 22.72 14.17Q22.02 14.13 20.69 14.14Q20.33 14.15 20.18 14.15Q20.03 14.15 19.66 14.14Q18.34 14.13 17.64 14.17Q16.41 14.23 15.87 14.44Q15.55 14.57 15.28 14.77Q15.14 14.88 15.01 15.01Q14.87 15.15 14.75 15.31Q14.57 15.56 14.45 15.86Q14.24 16.41 14.17 17.64Q14.14 18.34 14.15 19.67Q14.15 20.03 14.15 20.18Q14.15 20.33 14.15 20.7Q14.14 22.02 14.17 22.72Q14.23 23.95 14.45 24.5Q14.58 24.81 14.78 25.08Q14.88 25.22 15.01 25.35Q15.16 25.49 15.32 25.61Q15.57 25.79 15.87 25.91Q16.41 26.12 17.65 26.19Q18.35 26.22 19.68 26.21Q20.04 26.21 20.18 26.21Q20.33 26.21 20.7 26.21Q22.02 26.22 22.72 26.19ZM25.87 24.48C25.62 25.11 25.12 25.61 24.48 25.86C23.66 26.19 21.87 26.17 20.7 26.16C20.51 26.16 20.33 26.16 20.18 26.16C20.04 26.16 19.86 26.16 19.67 26.16L19.67 26.16C18.51 26.17 16.71 26.19 15.88 25.86C15.25 25.61 14.75 25.12 14.5 24.48C14.17 23.65 14.19 21.86 14.2 20.7C14.2 20.5 14.2 20.33 14.2 20.18C14.2 20.03 14.2 19.86 14.2 19.67C14.19 18.5 14.17 16.7 14.5 15.88C14.75 15.24 15.24 14.75 15.88 14.49C16.71 14.16 18.5 14.18 19.66 14.19C19.86 14.2 20.03 14.2 20.18 14.2C20.33 14.2 20.5 14.2 20.69 14.19C21.86 14.18 23.66 14.17 24.48 14.49C25.12 14.74 25.61 15.24 25.87 15.88C26.2 16.7 26.18 18.49 26.17 19.66C26.17 19.85 26.16 20.03 26.16 20.18C26.16 20.33 26.17 20.5 26.17 20.7C26.18 21.86 26.2 23.66 25.87 24.48ZM24.95 16.28C24.95 16.77 24.56 17.16 24.08 17.16C23.59 17.16 23.2 16.77 23.2 16.28C23.2 15.8 23.59 15.41 24.08 15.41C24.56 15.41 24.95 15.8 24.95 16.28ZM24.4 17.04Q24.25 17.11 24.08 17.11Q23.9 17.11 23.75 17.04Q23.61 16.98 23.49 16.87Q23.38 16.75 23.32 16.61Q23.25 16.46 23.25 16.28Q23.25 16.11 23.31 15.97Q23.37 15.82 23.49 15.7Q23.62 15.58 23.76 15.52Q23.91 15.46 24.08 15.46Q24.25 15.46 24.39 15.52Q24.54 15.58 24.66 15.7Q24.78 15.82 24.84 15.97Q24.9 16.11 24.9 16.28Q24.9 16.46 24.84 16.61Q24.78 16.75 24.66 16.87Q24.54 16.99 24.4 17.04ZM20.18 16.44C18.11 16.44 16.44 18.11 16.44 20.18C16.44 22.25 18.11 23.92 20.18 23.92C22.25 23.92 23.92 22.25 23.92 20.18C23.92 18.11 22.25 16.44 20.18 16.44ZM16.59 21.02Q16.49 20.61 16.49 20.18Q16.49 19.75 16.59 19.34Q16.66 19.03 16.78 18.74Q16.91 18.42 17.1 18.14Q17.3 17.83 17.57 17.56Q17.84 17.3 18.15 17.09Q18.43 16.91 18.74 16.77Q19.04 16.65 19.35 16.58Q19.75 16.49 20.18 16.49Q20.61 16.49 21.02 16.58Q21.33 16.65 21.62 16.77Q21.94 16.91 22.22 17.09Q22.53 17.3 22.8 17.56Q23.06 17.83 23.27 18.14Q23.45 18.42 23.59 18.74Q23.71 19.03 23.78 19.34Q23.87 19.75 23.87 20.18Q23.87 20.61 23.78 21.01Q23.71 21.32 23.59 21.62Q23.45 21.93 23.27 22.21Q23.06 22.52 22.8 22.79Q22.53 23.06 22.22 23.26Q21.94 23.45 21.62 23.58Q21.33 23.7 21.02 23.77Q20.61 23.87 20.18 23.87Q19.75 23.87 19.35 23.77Q19.04 23.7 18.74 23.58Q18.43 23.45 18.15 23.26Q17.84 23.06 17.57 22.79Q17.3 22.52 17.1 22.21Q16.91 21.93 16.78 21.62Q16.66 21.32 16.59 21.02ZM17.76 19.64Q17.7 19.9 17.7 20.18Q17.7 20.45 17.76 20.71Q17.81 20.93 17.9 21.14Q17.99 21.35 18.11 21.53Q18.25 21.74 18.43 21.93Q18.62 22.12 18.83 22.26Q19.01 22.38 19.22 22.46Q19.44 22.55 19.66 22.6Q19.92 22.66 20.18 22.66Q20.45 22.66 20.71 22.6Q20.93 22.55 21.15 22.46Q21.35 22.38 21.54 22.26Q21.75 22.12 21.94 21.93Q22.12 21.74 22.26 21.53Q22.38 21.35 22.47 21.14Q22.56 20.93 22.61 20.71Q22.66 20.45 22.66 20.18Q22.66 19.9 22.61 19.64Q22.56 19.42 22.47 19.21Q22.38 19.01 22.26 18.82Q22.12 18.61 21.94 18.42Q21.75 18.24 21.54 18.1Q21.36 17.98 21.15 17.89Q20.94 17.8 20.72 17.75Q20.46 17.7 20.18 17.7Q19.91 17.7 19.65 17.75Q19.43 17.8 19.22 17.89Q19.01 17.98 18.83 18.1Q18.61 18.24 18.43 18.42Q18.25 18.61 18.11 18.82Q17.99 19.01 17.9 19.21Q17.81 19.42 17.76 19.64ZM20.18 22.61C18.85 22.61 17.75 21.52 17.75 20.18C17.75 18.84 18.84 17.75 20.18 17.75C21.52 17.75 22.62 18.84 22.62 20.18C22.62 21.52 21.52 22.61 20.18 22.61Z" fill="#697687" fill-opacity="1.000000" fill-rule="evenodd"/>
	</g>
	<rect id="Rectangle 74" x="0.500000" y="0.500000" rx="19.500000" width="39.000000" height="39.000000" stroke="#697687" stroke-opacity="1.000000" stroke-width="1.000000"/>
</svg>
