<svg width="9.330139" height="16.231445" viewBox="0 0 9.33014 16.2314" fill="none" xmlns="http://www.w3.org/2000/svg" xmlns:xlink="http://www.w3.org/1999/xlink">
	<desc>
			Created with Pixso.
	</desc>
	<defs/>
	<path id="Vector" d="M0.43 0.45C0.15 0.74 0 1.13 0 1.54C0 1.94 0.15 2.33 0.43 2.62L5.72 8.15L0.43 13.6C0.15 13.89 0 14.28 0 14.69C0 15.09 0.15 15.48 0.43 15.77C0.57 15.92 0.73 16.03 0.92 16.11C1.1 16.19 1.29 16.23 1.49 16.23C1.69 16.23 1.88 16.19 2.06 16.11C2.25 16.03 2.41 15.92 2.55 15.77L8.88 9.24C9.02 9.1 9.13 8.93 9.21 8.74C9.29 8.55 9.33 8.35 9.33 8.15C9.33 7.95 9.29 7.74 9.21 7.56C9.13 7.37 9.02 7.2 8.88 7.06L2.55 0.45C2.41 0.31 2.25 0.19 2.06 0.11C1.88 0.04 1.69 0 1.49 0C1.29 0 1.1 0.04 0.92 0.11C0.73 0.19 0.57 0.31 0.43 0.45Z" fill="#FCFCFC" fill-opacity="1.000000" fill-rule="nonzero"/>
</svg>
