<svg width="9.330109" height="16.231445" viewBox="0 0 9.33011 16.2314" fill="none" xmlns="http://www.w3.org/2000/svg" xmlns:xlink="http://www.w3.org/1999/xlink">
	<desc>
			Created with Pixso.
	</desc>
	<defs/>
	<path id="Vector" d="M8.89 0.45C9.17 0.74 9.33 1.13 9.33 1.54C9.33 1.94 9.17 2.33 8.89 2.62L3.6 8.15L8.89 13.6C9.17 13.89 9.33 14.28 9.33 14.69C9.33 15.09 9.17 15.48 8.89 15.77C8.75 15.92 8.59 16.03 8.4 16.11C8.22 16.19 8.03 16.23 7.83 16.23C7.63 16.23 7.44 16.19 7.26 16.11C7.07 16.03 6.91 15.92 6.77 15.77L0.44 9.24C0.3 9.1 0.19 8.93 0.11 8.74C0.03 8.55 0 8.35 0 8.15C0 7.95 0.03 7.74 0.11 7.56C0.19 7.37 0.3 7.2 0.44 7.06L6.77 0.45C6.91 0.31 7.07 0.19 7.26 0.11C7.44 0.04 7.63 0 7.83 0C8.03 0 8.22 0.04 8.4 0.11C8.59 0.19 8.75 0.31 8.89 0.45Z" fill="#697687" fill-opacity="1.000000" fill-rule="nonzero"/>
</svg>
