<svg width="106.000000" height="45.000000" viewBox="0 0 106 45" fill="none" xmlns="http://www.w3.org/2000/svg" xmlns:xlink="http://www.w3.org/1999/xlink">
	<desc>
			Created with Pixso.
	</desc>
	<defs>
		<clipPath id="clip1_325">
			<rect id="Logo" rx="0.000000" width="105.000000" height="44.000000" transform="translate(0.500000 0.500000)" fill="white" fill-opacity="0"/>
		</clipPath>
	</defs>
	<rect id="Logo" rx="0.000000" width="105.000000" height="44.000000" transform="translate(0.500000 0.500000)" fill="#FFFFFF" fill-opacity="0"/>
	<g clip-path="url(#clip1_325)">
		<path id="TripGoal" d="M26.73 12.86Q26.73 13.27 26.58 13.62Q26.53 13.72 26.47 13.81Q26.41 13.92 26.34 14.02Q26.12 14.3 25.79 14.49Q25.69 14.54 25.59 14.58Q25.25 14.72 24.85 14.72C24.5 14.72 24.18 14.64 23.88 14.49Q23.66 14.35 23.49 14.18Q23.33 14.01 23.2 13.81Q23.18 13.77 23.16 13.73Q22.97 13.34 22.97 12.86Q22.97 12.37 23.16 11.98Q23.18 11.94 23.2 11.9Q23.35 11.66 23.55 11.48L23.55 11.48Q23.7 11.35 23.88 11.25C24.18 11.08 24.5 11 24.85 11Q25.19 11 25.49 11.1L25.49 11.1L25.49 11.1Q25.64 11.16 25.79 11.25Q26.08 11.4 26.28 11.63L26.28 11.63Q26.39 11.75 26.47 11.9Q26.53 12 26.58 12.1Q26.73 12.44 26.73 12.86ZM4.7 15.02L4.7 28.48L8.2 28.48L8.2 15.02L12.91 15.02L12.91 11.95L0 11.95L0 15.02L4.7 15.02ZM29.13 16.19L29.13 33L32.42 33L32.42 27.11C32.85 27.65 33.37 28.08 34 28.39C34.63 28.68 35.32 28.83 36.09 28.83C36.92 28.83 37.7 28.66 38.42 28.34C39.14 28 39.77 27.53 40.3 26.94C40.83 26.34 41.25 25.64 41.55 24.85C41.85 24.06 42 23.19 42 22.26C42 21.35 41.85 20.5 41.55 19.73C41.27 18.95 40.87 18.27 40.35 17.7C39.83 17.11 39.23 16.65 38.54 16.33C37.85 16 37.09 15.84 36.28 15.84Q35.39 15.84 34.6 16.12Q34.27 16.25 33.95 16.42C33.25 16.79 32.68 17.31 32.26 17.98L32.16 16.19L29.13 16.19ZM13.85 16.19L13.85 28.48L17.15 28.48L17.15 22.45C17.15 21.44 17.39 20.66 17.88 20.12C18.36 19.56 19.06 19.28 19.97 19.28Q20.25 19.28 20.51 19.33C20.7 19.34 20.88 19.38 21.05 19.45L21.4 16.23C21.23 16.17 21.04 16.12 20.82 16.09C20.6 16.05 20.38 16.02 20.16 16.02C19.44 16.02 18.81 16.2 18.28 16.56C17.74 16.9 17.32 17.4 17.01 18.05L16.89 16.19L13.85 16.19ZM23.2 28.48L23.2 16.19L26.5 16.19L26.5 28.48L23.2 28.48ZM37.1 25.43C36.63 25.74 36.1 25.89 35.5 25.89C34.91 25.89 34.37 25.74 33.9 25.43C33.43 25.12 33.06 24.7 32.77 24.17C32.51 23.63 32.37 23.02 32.37 22.33C32.37 21.65 32.51 21.04 32.77 20.52C33.06 19.97 33.43 19.55 33.9 19.24C34.37 18.93 34.91 18.77 35.5 18.77C36.1 18.77 36.63 18.93 37.1 19.24C37.57 19.55 37.94 19.97 38.21 20.52C38.49 21.04 38.63 21.65 38.63 22.33C38.63 23.02 38.49 23.63 38.21 24.17C37.94 24.7 37.57 25.12 37.1 25.43Z" fill="#3685FB" fill-opacity="1.000000" fill-rule="evenodd"/>
		<path id="TripGoal" d="M89.72 11L89.72 28.53L93 28.53L93 11L89.72 11ZM48.77 28.57C49.65 28.85 50.57 29 51.56 29C52.74 29 53.83 28.81 54.83 28.43C55.83 28.04 56.69 27.49 57.41 26.79Q57.69 26.51 57.94 26.2L57.94 26.2Q58.64 25.34 59.07 24.27C59.47 23.3 59.67 22.24 59.67 21.08L59.67 19.31L51.95 19.31L51.95 22.2L56.1 22.2C56 22.92 55.76 23.55 55.37 24.08C54.98 24.62 54.47 25.03 53.85 25.33C53.23 25.63 52.52 25.78 51.72 25.78C50.97 25.78 50.29 25.64 49.66 25.38C49.04 25.09 48.49 24.7 48.02 24.2C47.57 23.7 47.22 23.1 46.97 22.42Q46.6 21.38 46.6 20.16Q46.6 18.96 46.97 17.95C47.22 17.28 47.57 16.69 48.02 16.19C48.48 15.67 49.01 15.28 49.62 15.01Q49.75 14.95 49.88 14.9L49.88 14.9Q50.68 14.59 51.6 14.59Q52.77 14.59 53.68 15.08L53.68 15.08L53.68 15.08L53.68 15.08Q53.79 15.14 53.9 15.2Q54.05 15.29 54.19 15.39L54.19 15.39L54.19 15.39Q55 15.98 55.53 16.94L58.9 15.91Q58.46 14.86 57.75 14.03L57.75 14.03Q57.49 13.73 57.19 13.46Q56.89 13.18 56.56 12.93L56.56 12.93Q55.71 12.3 54.69 11.91C53.74 11.55 52.71 11.37 51.6 11.37C50.62 11.37 49.69 11.52 48.82 11.82Q48.04 12.07 47.35 12.46L47.35 12.46Q46.89 12.72 46.46 13.04C45.74 13.56 45.12 14.18 44.61 14.92Q44.56 14.99 44.51 15.06L44.51 15.06Q43.81 16.11 43.42 17.36Q43 18.7 43 20.23Q43 21.76 43.42 23.1C43.7 23.97 44.09 24.77 44.59 25.49Q45.02 26.1 45.53 26.61L45.53 26.61Q45.94 27.02 46.41 27.37C47.13 27.89 47.92 28.29 48.77 28.57ZM65.42 28.38Q66.59 28.88 67.97 28.88Q69.38 28.88 70.55 28.38C71.34 28.06 72.03 27.59 72.61 27C73.2 26.4 73.66 25.71 73.99 24.91C74.31 24.11 74.48 23.24 74.48 22.3C74.48 21.36 74.31 20.5 73.99 19.71C73.67 18.91 73.23 18.22 72.65 17.65C72.08 17.05 71.4 16.59 70.62 16.26Q69.45 15.77 68.07 15.77C67.13 15.77 66.27 15.93 65.47 16.26Q64.83 16.53 64.27 16.92L64.27 16.92Q63.81 17.24 63.41 17.65C62.84 18.24 62.38 18.94 62.06 19.74C61.73 20.52 61.56 21.38 61.56 22.32C61.56 23.26 61.72 24.13 62.03 24.93C62.36 25.73 62.81 26.43 63.39 27.02C63.97 27.6 64.64 28.06 65.42 28.38ZM80.44 28.88Q79.48 28.88 78.69 28.6C78.16 28.41 77.69 28.14 77.29 27.8C76.9 27.44 76.59 27.02 76.37 26.55C76.15 26.08 76.05 25.56 76.05 25C76.05 24.22 76.26 23.53 76.68 22.93C77.1 22.34 77.69 21.87 78.45 21.55C79.22 21.2 80.11 21.03 81.12 21.03C81.64 21.03 82.12 21.08 82.57 21.17C83.04 21.26 83.49 21.4 83.93 21.57L83.93 20.84Q83.93 20 83.54 19.41Q83.44 19.26 83.32 19.13C82.93 18.69 82.39 18.47 81.71 18.47C81.19 18.47 80.72 18.6 80.3 18.87C79.88 19.12 79.59 19.48 79.41 19.95L76.49 19.36C76.66 18.64 77 18.01 77.5 17.48C78.01 16.93 78.63 16.51 79.37 16.21C80.1 15.91 80.9 15.77 81.75 15.77C82.55 15.77 83.27 15.89 83.93 16.14C84.58 16.39 85.15 16.75 85.61 17.22C86.1 17.69 86.46 18.25 86.71 18.89C86.98 19.52 87.11 20.22 87.11 21.01L87.11 28.53L84.19 28.53L84.09 27.07C83.76 27.6 83.29 28.04 82.67 28.38C82.04 28.71 81.3 28.88 80.44 28.88ZM69.61 25.45C69.14 25.76 68.61 25.92 68.02 25.92C67.43 25.92 66.9 25.76 66.43 25.45C65.96 25.13 65.59 24.71 65.31 24.18C65.04 23.63 64.91 23.01 64.91 22.32C64.91 21.63 65.04 21.02 65.31 20.49C65.59 19.94 65.96 19.51 66.43 19.2C66.9 18.88 67.43 18.73 68.02 18.73C68.61 18.73 69.14 18.88 69.61 19.2Q69.77 19.3 69.91 19.42L69.91 19.42Q70.4 19.85 70.71 20.49C70.99 21.02 71.13 21.63 71.13 22.32C71.13 23.01 70.99 23.63 70.71 24.18Q70.43 24.74 70 25.14Q69.82 25.31 69.61 25.45ZM79.27 24.84C79.27 25.27 79.45 25.63 79.81 25.92C80.17 26.2 80.65 26.34 81.24 26.34C81.75 26.34 82.21 26.23 82.62 26.01C83.02 25.79 83.34 25.49 83.58 25.12C83.81 24.73 83.93 24.3 83.93 23.83L83.93 23.71C83.59 23.57 83.22 23.46 82.83 23.38C82.44 23.28 82.05 23.24 81.66 23.24C80.93 23.24 80.34 23.39 79.91 23.68C79.48 23.97 79.27 24.35 79.27 24.84Z" fill="#002248" fill-opacity="1.000000" fill-rule="evenodd"/>
		<circle id="Ellipse 3" cx="102.000000" cy="25.000000" r="4.000000" fill="#00B3A0" fill-opacity="1.000000"/>
	</g>
</svg>
