<svg width="21.517242" height="24.000000" viewBox="0 0 21.5172 24" fill="none" xmlns="http://www.w3.org/2000/svg" xmlns:xlink="http://www.w3.org/1999/xlink">
	<desc>
			Created with Pixso.
	</desc>
	<defs/>
	<path id="Vector" d="M16.43 0.86C16.43 1.88 17.23 2.69 18.19 3.03C20.24 3.75 21.27 5.38 21.46 7.58C21.5 7.91 21.21 8.2 20.87 8.2L0.64 8.2C0.31 8.2 0.02 7.92 0.04 7.58C0.23 5.38 1.27 3.75 3.31 3.03C4.28 2.69 5.08 1.88 5.08 0.86C5.08 0.39 5.48 0 5.97 0C6.46 0 6.87 0.39 6.87 0.86C6.87 1.82 7.65 2.6 8.6 2.6L12.9 2.6C13.86 2.6 14.64 1.82 14.64 0.86C14.64 0.39 15.05 0 15.54 0C16.03 0 16.43 0.39 16.43 0.86ZM1.19 9.93L20.32 9.93C20.97 9.93 21.51 10.45 21.51 11.09L21.51 18.21C21.51 21.68 19.72 24 15.54 24L5.97 24C1.79 24 0 21.68 0 18.21L0 11.09C0 10.45 0.53 9.93 1.19 9.93ZM15.61 15.7L15.79 15.56C16 15.34 16.13 15.04 16.13 14.74C16.13 14.44 16 14.14 15.79 13.92L15.61 13.78C15.54 13.74 15.46 13.7 15.39 13.68C15.32 13.64 15.25 13.62 15.18 13.61C14.94 13.56 14.7 13.59 14.48 13.68C14.33 13.74 14.21 13.82 14.09 13.92C13.87 14.14 13.74 14.44 13.74 14.74C13.74 15.04 13.87 15.34 14.09 15.56C14.32 15.77 14.63 15.9 14.94 15.9C15.01 15.9 15.09 15.89 15.18 15.88C15.25 15.86 15.32 15.84 15.39 15.81C15.46 15.78 15.54 15.75 15.61 15.7ZM6.57 15.9C6.88 15.9 7.19 15.77 7.42 15.56C7.63 15.34 7.77 15.04 7.77 14.74C7.77 14.44 7.63 14.14 7.42 13.92C7.31 13.82 7.18 13.74 7.02 13.68C6.58 13.49 6.06 13.6 5.72 13.92C5.51 14.14 5.37 14.44 5.37 14.74C5.37 15.04 5.51 15.34 5.72 15.56C5.95 15.77 6.26 15.9 6.57 15.9ZM11.42 15.7L11.6 15.56C11.82 15.34 11.95 15.04 11.95 14.74C11.95 14.44 11.82 14.14 11.6 13.92C11.27 13.6 10.74 13.49 10.3 13.68C10.14 13.74 10.01 13.82 9.9 13.92C9.69 14.14 9.56 14.44 9.56 14.74C9.56 15.04 9.69 15.34 9.9 15.56C10.13 15.77 10.44 15.9 10.75 15.9C10.84 15.9 10.91 15.89 10.99 15.88C11.06 15.86 11.14 15.84 11.21 15.81C11.28 15.78 11.35 15.75 11.42 15.7ZM7.24 19.75C7.3 19.72 7.36 19.66 7.42 19.61C7.63 19.39 7.77 19.09 7.77 18.79C7.77 18.49 7.63 18.19 7.42 17.97L7.24 17.83C7.17 17.78 7.1 17.75 7.02 17.73C6.95 17.69 6.88 17.67 6.81 17.66C6.57 17.61 6.33 17.63 6.12 17.73C5.96 17.78 5.84 17.86 5.72 17.97C5.51 18.19 5.37 18.49 5.37 18.79C5.37 19.09 5.51 19.39 5.72 19.61C5.84 19.72 5.96 19.8 6.12 19.85C6.26 19.91 6.41 19.95 6.57 19.95C6.65 19.95 6.73 19.94 6.81 19.92C6.88 19.91 6.95 19.89 7.02 19.85C7.1 19.83 7.17 19.8 7.24 19.75ZM10.75 19.95C11.06 19.95 11.38 19.82 11.6 19.61C11.82 19.39 11.95 19.09 11.95 18.79C11.95 18.49 11.82 18.19 11.6 17.97C11.16 17.54 10.35 17.54 9.9 17.97C9.69 18.19 9.56 18.49 9.56 18.79C9.56 19.09 9.69 19.39 9.9 19.61C10.13 19.82 10.44 19.95 10.75 19.95ZM14.94 19.95C15.25 19.95 15.56 19.82 15.79 19.61C16 19.39 16.13 19.09 16.13 18.79C16.13 18.49 16 18.19 15.79 17.97C15.34 17.54 14.53 17.54 14.09 17.97C13.87 18.19 13.74 18.49 13.74 18.79C13.74 19.09 13.87 19.39 14.09 19.61C14.32 19.82 14.63 19.95 14.94 19.95Z" fill="#FFFFFF" fill-opacity="1.000000" fill-rule="evenodd"/>
</svg>
