<svg width="88.000000" height="64.000000" viewBox="0 0 88 64" fill="none" xmlns="http://www.w3.org/2000/svg" xmlns:xlink="http://www.w3.org/1999/xlink">
	<desc>
			Created with Pixso.
	</desc>
	<defs/>
	<path id="Book Now" d="M35.18 44.51L35.18 57.94L37.64 57.94L37.64 53.21L41.37 57.94L44.55 57.94L40.16 52.65L44.12 48.44L41.17 48.44L37.64 52.31L37.64 44.51L35.18 44.51ZM1.52 45.16L1.52 57.94L6.25 57.94Q7.67 57.94 8.72 57.49Q9.7 57.07 10.26 56.33Q10.3 56.28 10.34 56.23C10.72 55.69 10.91 55.05 10.91 54.3Q10.91 53.31 10.49 52.56Q10.44 52.47 10.37 52.38C10.01 51.83 9.51 51.42 8.86 51.17C9.34 50.91 9.71 50.55 9.98 50.09C10.24 49.62 10.37 49.08 10.37 48.47Q10.37 47.68 10.05 47.05Q9.96 46.88 9.85 46.73C9.52 46.22 9.03 45.84 8.39 45.57C7.77 45.3 7.03 45.16 6.16 45.16L1.52 45.16ZM49.56 45.16L49.56 57.94L52.15 57.94L52.15 49.48L58.07 57.94L60.4 57.94L60.4 45.16L57.8 45.16L57.8 53.62L51.88 45.16L49.56 45.16ZM4.11 50.31L4.11 47.37L5.87 47.37Q6.76 47.37 7.22 47.75Q7.37 47.87 7.47 48.01Q7.71 48.35 7.71 48.85Q7.71 49.35 7.47 49.69Q7.37 49.83 7.22 49.95C6.91 50.19 6.46 50.31 5.87 50.31L4.11 50.31ZM15.23 57.83C15.83 58.08 16.49 58.21 17.2 58.21C17.92 58.21 18.58 58.08 19.18 57.83Q19.85 57.55 20.39 57.11Q20.58 56.95 20.76 56.77C21.22 56.31 21.57 55.78 21.82 55.17C22.07 54.56 22.2 53.89 22.2 53.17Q22.2 52.09 21.82 51.19C21.58 50.58 21.24 50.05 20.8 49.61C20.35 49.15 19.83 48.8 19.23 48.54C18.63 48.29 17.98 48.17 17.27 48.17C16.55 48.17 15.88 48.29 15.27 48.54C14.67 48.8 14.14 49.15 13.69 49.61C13.24 50.06 12.89 50.6 12.64 51.21C12.39 51.81 12.26 52.47 12.26 53.19Q12.26 54.27 12.62 55.19C12.88 55.8 13.22 56.33 13.67 56.79C14.11 57.23 14.63 57.58 15.23 57.83ZM26.55 57.83C27.15 58.08 27.81 58.21 28.52 58.21C29.24 58.21 29.9 58.08 30.5 57.83Q31.17 57.55 31.71 57.11Q31.9 56.95 32.08 56.77C32.54 56.31 32.89 55.78 33.14 55.17C33.39 54.56 33.52 53.89 33.52 53.17Q33.52 52.09 33.14 51.19C32.9 50.58 32.56 50.05 32.12 49.61C31.67 49.15 31.15 48.8 30.55 48.54C29.95 48.29 29.3 48.17 28.59 48.17C27.87 48.17 27.2 48.29 26.59 48.54C25.99 48.8 25.46 49.15 25.01 49.61Q24.85 49.76 24.71 49.93Q24.25 50.5 23.96 51.21C23.71 51.81 23.58 52.47 23.58 53.19Q23.58 54.27 23.94 55.19C24.2 55.8 24.54 56.33 24.99 56.79C25.43 57.23 25.95 57.58 26.55 57.83ZM65.19 57.83C65.79 58.08 66.45 58.21 67.15 58.21C67.87 58.21 68.53 58.08 69.13 57.83Q69.81 57.55 70.35 57.11Q70.54 56.95 70.72 56.77C71.17 56.31 71.53 55.78 71.78 55.17C72.03 54.56 72.16 53.89 72.16 53.17Q72.16 52.09 71.78 51.19C71.54 50.58 71.2 50.05 70.75 49.61C70.31 49.15 69.79 48.8 69.19 48.54Q68.29 48.17 67.23 48.17Q66.15 48.17 65.23 48.54C64.63 48.8 64.1 49.15 63.64 49.61Q63.49 49.76 63.35 49.93Q62.89 50.5 62.6 51.21C62.35 51.81 62.22 52.47 62.22 53.19C62.22 53.91 62.34 54.57 62.58 55.19C62.83 55.8 63.18 56.33 63.63 56.79C64.07 57.23 64.59 57.58 65.19 57.83ZM72.72 48.44L75.87 57.94L78.16 57.94L80.07 51.51L81.97 57.94L84.3 57.94L87.45 48.44L84.94 48.44L83.13 54.88L81.2 48.44L79.02 48.44L77.1 54.86L75.31 48.44L72.72 48.44ZM18.46 55.58C18.1 55.82 17.69 55.94 17.23 55.94C16.78 55.94 16.37 55.82 16.01 55.58C15.65 55.34 15.36 55.02 15.14 54.61C14.94 54.19 14.84 53.72 14.84 53.19C14.84 52.66 14.94 52.19 15.14 51.78Q15.42 51.26 15.84 50.92Q15.92 50.85 16.01 50.79C16.37 50.55 16.78 50.43 17.23 50.43C17.69 50.43 18.1 50.55 18.46 50.79C18.82 51.03 19.1 51.36 19.3 51.78C19.52 52.19 19.63 52.66 19.63 53.19Q19.63 53.96 19.32 54.58Q19.31 54.6 19.3 54.61C19.1 55.02 18.82 55.34 18.46 55.58ZM29.78 55.58C29.42 55.82 29.01 55.94 28.55 55.94C28.1 55.94 27.69 55.82 27.33 55.58C26.97 55.34 26.68 55.02 26.46 54.61C26.26 54.19 26.16 53.72 26.16 53.19C26.16 52.66 26.26 52.19 26.46 51.78C26.68 51.36 26.97 51.03 27.33 50.79C27.69 50.55 28.1 50.43 28.55 50.43C29.01 50.43 29.42 50.55 29.78 50.79C30.14 51.03 30.42 51.36 30.62 51.78C30.84 52.19 30.95 52.66 30.95 53.19Q30.95 53.96 30.64 54.58Q30.63 54.6 30.62 54.61C30.42 55.02 30.14 55.34 29.78 55.58ZM68.41 55.58C68.05 55.82 67.65 55.94 67.19 55.94C66.73 55.94 66.33 55.82 65.97 55.58C65.61 55.34 65.32 55.02 65.1 54.61C64.9 54.19 64.8 53.72 64.8 53.19C64.8 52.66 64.9 52.19 65.1 51.78C65.32 51.36 65.61 51.03 65.97 50.79C66.33 50.55 66.73 50.43 67.19 50.43C67.65 50.43 68.05 50.55 68.41 50.79C68.77 51.03 69.06 51.36 69.26 51.78C69.48 52.19 69.58 52.66 69.58 53.19Q69.58 53.96 69.27 54.58Q69.27 54.6 69.26 54.61C69.06 55.02 68.77 55.34 68.41 55.58ZM6.13 55.73L4.11 55.73L4.11 52.38L6.13 52.38Q7.13 52.38 7.67 52.81C8.05 53.1 8.23 53.51 8.23 54.05C8.23 54.59 8.05 55.01 7.67 55.29C7.31 55.58 6.8 55.73 6.13 55.73Z" fill="#FFFFFF" fill-opacity="1.000000" fill-rule="evenodd"/>
	<path id="Vector" d="M50.43 0.86C50.43 1.88 51.23 2.69 52.19 3.03C54.24 3.75 55.27 5.38 55.46 7.58C55.5 7.91 55.21 8.2 54.87 8.2L34.64 8.2C34.31 8.2 34.02 7.92 34.04 7.58C34.23 5.38 35.27 3.75 37.31 3.03C38.28 2.69 39.08 1.88 39.08 0.86C39.08 0.39 39.48 0 39.97 0C40.46 0 40.87 0.39 40.87 0.86C40.87 1.82 41.65 2.6 42.6 2.6L46.9 2.6C47.86 2.6 48.64 1.82 48.64 0.86C48.64 0.39 49.05 0 49.54 0C50.03 0 50.43 0.39 50.43 0.86ZM35.19 9.93L54.32 9.93C54.97 9.93 55.51 10.45 55.51 11.09L55.51 18.21C55.51 21.68 53.72 24 49.54 24L39.97 24C35.79 24 34 21.68 34 18.21L34 11.09C34 10.45 34.53 9.93 35.19 9.93ZM49.61 15.7L49.79 15.56C50 15.34 50.13 15.04 50.13 14.74C50.13 14.44 50 14.14 49.79 13.92L49.61 13.78C49.54 13.74 49.46 13.7 49.39 13.68C49.32 13.64 49.25 13.62 49.18 13.61C48.94 13.56 48.7 13.59 48.48 13.68C48.33 13.74 48.21 13.82 48.09 13.92C47.87 14.14 47.74 14.44 47.74 14.74C47.74 15.04 47.87 15.34 48.09 15.56C48.32 15.77 48.63 15.9 48.94 15.9C49.01 15.9 49.09 15.89 49.18 15.88C49.25 15.86 49.32 15.84 49.39 15.81C49.46 15.78 49.54 15.75 49.61 15.7ZM40.57 15.9C40.88 15.9 41.19 15.77 41.42 15.56C41.63 15.34 41.77 15.04 41.77 14.74C41.77 14.44 41.63 14.14 41.42 13.92C41.31 13.82 41.18 13.74 41.02 13.68C40.58 13.49 40.06 13.6 39.72 13.92C39.51 14.14 39.37 14.44 39.37 14.74C39.37 15.04 39.51 15.34 39.72 15.56C39.95 15.77 40.26 15.9 40.57 15.9ZM45.42 15.7L45.6 15.56C45.82 15.34 45.95 15.04 45.95 14.74C45.95 14.44 45.82 14.14 45.6 13.92C45.27 13.6 44.74 13.49 44.3 13.68C44.14 13.74 44.01 13.82 43.9 13.92C43.69 14.14 43.56 14.44 43.56 14.74C43.56 15.04 43.69 15.34 43.9 15.56C44.13 15.77 44.44 15.9 44.75 15.9C44.84 15.9 44.91 15.89 44.99 15.88C45.06 15.86 45.14 15.84 45.21 15.81C45.28 15.78 45.35 15.75 45.42 15.7ZM41.24 19.75C41.3 19.72 41.36 19.66 41.42 19.61C41.63 19.39 41.77 19.09 41.77 18.79C41.77 18.49 41.63 18.19 41.42 17.97L41.24 17.83C41.17 17.78 41.1 17.75 41.02 17.73C40.95 17.69 40.88 17.67 40.81 17.66C40.57 17.61 40.33 17.63 40.12 17.73C39.96 17.78 39.84 17.86 39.72 17.97C39.51 18.19 39.37 18.49 39.37 18.79C39.37 19.09 39.51 19.39 39.72 19.61C39.84 19.72 39.96 19.8 40.12 19.85C40.26 19.91 40.41 19.95 40.57 19.95C40.65 19.95 40.73 19.94 40.81 19.92C40.88 19.91 40.95 19.89 41.02 19.85C41.1 19.83 41.17 19.8 41.24 19.75ZM44.75 19.95C45.06 19.95 45.38 19.82 45.6 19.61C45.82 19.39 45.95 19.09 45.95 18.79C45.95 18.49 45.82 18.19 45.6 17.97C45.16 17.54 44.35 17.54 43.9 17.97C43.69 18.19 43.56 18.49 43.56 18.79C43.56 19.09 43.69 19.39 43.9 19.61C44.13 19.82 44.44 19.95 44.75 19.95ZM48.94 19.95C49.25 19.95 49.56 19.82 49.79 19.61C50 19.39 50.13 19.09 50.13 18.79C50.13 18.49 50 18.19 49.79 17.97C49.34 17.54 48.53 17.54 48.09 17.97C47.87 18.19 47.74 18.49 47.74 18.79C47.74 19.09 47.87 19.39 48.09 19.61C48.32 19.82 48.63 19.95 48.94 19.95Z" fill="#FFFFFF" fill-opacity="1.000000" fill-rule="evenodd"/>
</svg>
