<svg width="110.410278" height="102.417480" viewBox="0 0 110.41 102.417" fill="none" xmlns="http://www.w3.org/2000/svg" xmlns:xlink="http://www.w3.org/1999/xlink">
	<desc>
			Created with Pixso.
	</desc>
	<defs>
		<filter id="filter_1_56_dd" x="31.668030" y="23.675171" width="78.742249" height="78.742310" filterUnits="userSpaceOnUse" color-interpolation-filters="sRGB">
			<feFlood flood-opacity="0" result="BackgroundImageFix"/>
			<feBlend mode="normal" in="SourceGraphic" in2="BackgroundImageFix" result="shape"/>
			<feGaussianBlur stdDeviation="5.66667" result="effect_layerBlur_1"/>
		</filter>
		<filter id="filter_1_58_dd" x="0.000000" y="0.000000" width="90.402008" height="90.269409" filterUnits="userSpaceOnUse" color-interpolation-filters="sRGB">
			<feFlood flood-opacity="0" result="BackgroundImageFix"/>
			<feGaussianBlur in="BackgroundImage" stdDeviation="8"/>
			<feComposite in2="SourceAlpha" operator="in" result="effect_backgroundBlur_1"/>
			<feBlend mode="normal" in="SourceGraphic" in2="effect_backgroundBlur_1" result="shape"/>
		</filter>
		<filter id="filter_1_59_dd" x="14.078583" y="34.586304" width="72.069702" height="31.316162" filterUnits="userSpaceOnUse" color-interpolation-filters="sRGB">
			<feFlood flood-opacity="0" result="BackgroundImageFix"/>
			<feGaussianBlur in="BackgroundImage" stdDeviation="5"/>
			<feComposite in2="SourceAlpha" operator="in" result="effect_backgroundBlur_1"/>
			<feColorMatrix in="SourceAlpha" type="matrix" values="0 0 0 0 0 0 0 0 0 0 0 0 0 0 0 0 0 0 127 0" result="hardAlpha"/>
			<feOffset dx="5" dy="5"/>
			<feGaussianBlur stdDeviation="3.33333"/>
			<feComposite in2="hardAlpha" operator="out" k2="-1" k3="1"/>
			<feColorMatrix type="matrix" values="0 0 0 0 0.17255 0 0 0 0 0.50196 0 0 0 0 1 0 0 0 1 0"/>
			<feBlend mode="normal" in2="effect_backgroundBlur_1" result="effect_dropShadow_2"/>
			<feBlend mode="normal" in="SourceGraphic" in2="effect_dropShadow_2" result="shape"/>
		</filter>
		<linearGradient x1="71.360809" y1="28.061768" x2="71.360809" y2="97.236221" id="paint_linear_1_55_0" gradientUnits="userSpaceOnUse">
			<stop stop-color="#A4C8FF"/>
			<stop offset="1.000000" stop-color="#3685FB"/>
		</linearGradient>
		<linearGradient x1="15.072163" y1="11.283497" x2="71.360779" y2="81.103058" id="paint_linear_1_58_0" gradientUnits="userSpaceOnUse">
			<stop stop-color="#FFFFFF" stop-opacity="0.250980"/>
			<stop offset="1.000000" stop-color="#FFFFFF" stop-opacity="0.000000"/>
		</linearGradient>
		<linearGradient x1="67.456596" y1="41.629768" x2="11.366151" y2="54.773766" id="paint_linear_1_59_0" gradientUnits="userSpaceOnUse">
			<stop stop-color="#FFFFFF"/>
			<stop offset="1.000000" stop-color="#FFFFFF" stop-opacity="0.200000"/>
		</linearGradient>
		<linearGradient x1="27.367233" y1="40.904648" x2="60.521824" y2="49.855484" id="paint_linear_1_59_1" gradientUnits="userSpaceOnUse">
			<stop stop-color="#FFFFFF" stop-opacity="0.250980"/>
			<stop offset="1.000000" stop-color="#FFFFFF" stop-opacity="0.000000"/>
		</linearGradient>
	</defs>
	<path id="Fill 1" d="M71.29 28.06C91.41 28.06 106 44.48 106 62.7C106 68.52 104.3 74.51 101.32 79.98C100.76 80.88 100.7 82.02 101.08 83.1L103.4 90.86C103.92 92.73 102.32 94.11 100.56 93.56L93.56 91.48C91.65 90.86 90.16 91.65 88.39 92.73C83.34 95.71 77.04 97.23 71.36 97.23C54.17 97.23 36.72 83.96 36.72 62.59C36.72 44.16 51.61 28.06 71.29 28.06Z" fill="url(#paint_linear_1_55_0)" fill-opacity="1.000000" fill-rule="nonzero"/>
	<g opacity="0.500000" filter="url(#filter_1_56_dd)" style="mix-blend-mode:normal">
		<path id="Fill 1" d="M93.41 63.04C93.41 75.4 83.39 85.41 71.03 85.41C58.68 85.41 48.66 75.4 48.66 63.04C48.66 50.69 58.68 40.67 71.03 40.67C83.39 40.67 93.41 50.69 93.41 63.04Z" fill="#3685FB" fill-opacity="1.000000" fill-rule="nonzero"/>
	</g>
	<g filter="url(#filter_1_58_dd)">
		<path id="Fill 1" d="M45.28 1C19.6 1 1 21.95 1 45.2C1 52.62 3.16 60.27 6.96 67.25C7.67 68.4 7.76 69.86 7.27 71.23L4.31 81.13C3.65 83.52 5.68 85.29 7.93 84.58L16.86 81.93C19.29 81.13 21.19 82.15 23.45 83.52C29.91 87.32 37.95 89.26 45.2 89.26C67.12 89.26 89.4 72.34 89.4 45.06C89.4 21.55 70.39 1 45.28 1Z" fill="#3685FB" fill-opacity="0.350000" fill-rule="nonzero"/>
		<path id="Fill 1" d="M3 28.68Q0 36.35 0 45.2Q0 45.76 0.01 46.32Q0.3 57.1 6.08 67.73Q6.09 67.74 6.1 67.75Q6.1 67.77 6.11 67.78Q6.37 68.19 6.49 68.65Q6.76 69.68 6.33 70.9Q6.33 70.91 6.32 70.92Q6.32 70.93 6.31 70.94L3.35 80.84Q2.97 82.23 3.37 83.32Q3.66 84.11 4.35 84.75Q5.04 85.39 5.85 85.62Q6.93 85.94 8.23 85.53L17.15 82.89Q17.15 82.88 17.16 82.88Q17.17 82.88 17.17 82.88Q19.31 82.18 22.93 84.37Q25.98 86.17 29.23 87.41Q36.67 90.26 45.2 90.26Q53.85 90.26 61.41 87.4Q69.41 84.37 76.19 78.13Q82.5 72.33 86.01 65.16Q90.4 56.18 90.4 45.06Q90.4 36.22 87.39 28.57Q84.16 20.36 77.47 13.51Q70.97 6.86 63.07 3.48Q54.92 0 45.28 0Q35.22 0 26.81 3.72Q19.11 7.14 12.79 13.68Q6.19 20.52 3 28.68ZM45.28 1C19.6 1 1 21.95 1 45.2C1 52.62 3.16 60.27 6.96 67.25C7.67 68.4 7.76 69.86 7.27 71.23L4.31 81.13C3.65 83.52 5.68 85.29 7.93 84.58L16.86 81.93C19.29 81.13 21.19 82.15 23.45 83.52C29.91 87.32 37.95 89.26 45.2 89.26C67.12 89.26 89.4 72.34 89.4 45.06C89.4 21.55 70.39 1 45.28 1Z" fill="url(#paint_linear_1_58_0)" fill-opacity="1.000000" fill-rule="evenodd"/>
	</g>
	<g filter="url(#filter_1_59_dd)">
		<mask id="mask_1_59" fill="white">
			<path id="Combined Shape" d="M45.1146 50.9023C41.9763 50.8582 39.4568 48.3386 39.4568 45.2004C39.4568 42.1063 42.0205 39.5427 45.1146 39.5869C48.2528 39.5869 50.7723 42.1063 50.7723 45.2446C50.7723 48.3386 48.2528 50.9023 45.1146 50.9023ZM59.8328 45.2445C59.8328 48.3386 62.3523 50.9023 65.4906 50.9023C68.6288 50.9023 71.1483 48.3386 71.1483 45.2445C71.1483 42.1063 68.6288 39.5868 65.4906 39.5868C62.3523 39.5868 59.8328 42.1063 59.8328 45.2445ZM24.7363 50.9025C21.6422 50.9025 19.0786 48.3387 19.0786 45.2446C19.0786 42.1064 21.5981 39.5869 24.7363 39.5869C27.8746 39.5869 30.394 42.1064 30.394 45.2446C30.394 48.3387 27.8746 50.8582 24.7363 50.9025Z" clip-rule="evenodd" fill="" fill-opacity="1.000000" fill-rule="evenodd"/>
		</mask>
		<path id="Combined Shape" d="M45.1146 50.9023C41.9763 50.8582 39.4568 48.3386 39.4568 45.2004C39.4568 42.1063 42.0205 39.5427 45.1146 39.5869C48.2528 39.5869 50.7723 42.1063 50.7723 45.2446C50.7723 48.3386 48.2528 50.9023 45.1146 50.9023ZM59.8328 45.2445C59.8328 48.3386 62.3523 50.9023 65.4906 50.9023C68.6288 50.9023 71.1483 48.3386 71.1483 45.2445C71.1483 42.1063 68.6288 39.5868 65.4906 39.5868C62.3523 39.5868 59.8328 42.1063 59.8328 45.2445ZM24.7363 50.9025C21.6422 50.9025 19.0786 48.3387 19.0786 45.2446C19.0786 42.1064 21.5981 39.5869 24.7363 39.5869C27.8746 39.5869 30.394 42.1064 30.394 45.2446C30.394 48.3387 27.8746 50.8582 24.7363 50.9025Z" clip-rule="evenodd" fill="url(#paint_linear_1_59_0)" fill-opacity="1.000000" fill-rule="evenodd" mask="url(#mask_1_59)"/>
		<path id="Combined Shape" d="M39.4568 45.2004C39.4568 48.3386 41.9763 50.8582 45.1146 50.9023C48.2528 50.9023 50.7723 48.3386 50.7723 45.2446C50.7723 42.1063 48.2528 39.5869 45.1146 39.5869C42.0205 39.5427 39.4568 42.1063 39.4568 45.2004ZM65.4906 50.9023C62.3523 50.9023 59.8328 48.3386 59.8328 45.2445C59.8328 42.1063 62.3523 39.5868 65.4906 39.5868C68.6288 39.5868 71.1483 42.1063 71.1483 45.2445C71.1483 48.3386 68.6288 50.9023 65.4906 50.9023ZM19.0786 45.2446C19.0786 48.3387 21.6422 50.9025 24.7363 50.9025C27.8746 50.8582 30.394 48.3387 30.394 45.2446C30.394 42.1064 27.8746 39.5869 24.7363 39.5869C21.5981 39.5869 19.0786 42.1064 19.0786 45.2446ZM45.1202 50.5023L45.12 50.5023Q44.49 50.4934 43.8942 50.3461Q43.4708 50.2413 43.0647 50.0667Q42.5911 49.8629 42.1727 49.5783Q41.7552 49.2942 41.3925 48.9296Q41.0007 48.5356 40.7046 48.0795Q40.4514 47.6895 40.2682 47.254Q40.0971 46.8471 39.9972 46.4234Q39.8568 45.8285 39.8568 45.2004Q39.8568 44.6827 39.9567 44.1851Q40.0608 43.6662 40.2735 43.1691Q40.4551 42.7447 40.7033 42.3639Q41.0059 41.8998 41.4075 41.5004Q41.8369 41.0733 42.3379 40.7615Q42.6909 40.5418 43.0796 40.3793Q43.5735 40.1727 44.0882 40.0747Q44.5887 39.9794 45.1089 39.9868Q45.7861 39.9868 46.4224 40.1482Q46.8022 40.2444 47.1673 40.3982Q47.6239 40.5904 48.0295 40.8595Q48.4625 41.1468 48.8374 41.5217Q49.2128 41.8971 49.5003 42.3306Q49.7689 42.7358 49.9609 43.1918Q50.1286 43.5902 50.228 44.005Q50.3723 44.6075 50.3723 45.2446Q50.3723 45.7932 50.2622 46.3186Q50.1595 46.8085 49.9611 47.2783Q49.7767 47.715 49.5221 48.1059Q49.2267 48.5596 48.8367 48.9517Q48.4359 49.3547 47.97 49.6576Q47.5895 49.9049 47.1657 50.0854Q46.7293 50.2714 46.2741 50.3744Q45.7115 50.5017 45.1202 50.5023ZM60.3433 46.3201Q60.2328 45.7939 60.2328 45.2445Q60.2328 44.6082 60.3768 44.0064Q60.4762 43.5909 60.6442 43.1918Q60.8366 42.7347 61.1061 42.3287Q61.3932 41.8962 61.7677 41.5217Q62.1426 41.1468 62.5757 40.8595Q62.9812 40.5904 63.4378 40.3982Q63.8361 40.2305 64.2508 40.1312Q64.8534 39.9868 65.4906 39.9868Q66.1277 39.9868 66.7303 40.1312Q67.145 40.2305 67.5433 40.3982Q67.9999 40.5904 68.4055 40.8595Q68.8385 41.1468 69.2134 41.5217Q69.588 41.8962 69.8751 42.3287Q70.1445 42.7347 70.3369 43.1918Q70.505 43.5909 70.6043 44.0064Q70.7483 44.6082 70.7483 45.2445Q70.7483 45.7939 70.6378 46.3201Q70.5352 46.8092 70.3371 47.2783Q70.1527 47.7149 69.8982 48.1058Q69.6027 48.5595 69.2127 48.9517Q68.8123 49.3542 68.3469 49.6569Q67.9661 49.9045 67.5417 50.0853Q67.1047 50.2716 66.6488 50.3747Q66.0841 50.5023 65.4906 50.5023Q64.8967 50.5023 64.3317 50.3745Q63.8761 50.2715 63.4394 50.0853Q63.0147 49.9044 62.6337 49.6565Q62.1686 49.3539 61.7685 48.9517Q61.3783 48.5593 61.0827 48.1054Q60.8283 47.7147 60.644 47.2783Q60.446 46.8092 60.3433 46.3201ZM25.9377 50.351Q25.3506 50.4937 24.7309 50.5024L24.7307 50.5024Q24.2251 50.5019 23.7384 50.406Q23.2102 50.302 22.7042 50.0857Q22.3007 49.9132 21.9358 49.6804Q21.4485 49.3695 21.03 48.9509Q20.6116 48.5326 20.3009 48.0457Q20.0679 47.6805 19.8953 47.2769Q19.6789 46.7705 19.5749 46.2419Q19.4786 45.7528 19.4786 45.2446Q19.4786 44.6085 19.6225 44.0067Q19.7219 43.5911 19.89 43.1919Q20.0819 42.736 20.3505 42.3309Q20.638 41.8972 21.0134 41.5219Q21.3883 41.1469 21.8214 40.8596Q22.227 40.5905 22.6835 40.3983Q23.0819 40.2306 23.4965 40.1313Q24.0991 39.9869 24.7363 39.9869Q25.3737 39.9869 25.9764 40.1314Q26.391 40.2307 26.7891 40.3983Q27.2455 40.5905 27.6509 40.8594Q28.0841 41.1468 28.4592 41.5219Q28.8347 41.8974 29.1223 42.3311Q29.3908 42.7361 29.5827 43.1919Q29.7507 43.5911 29.8501 44.0067Q29.994 44.6085 29.994 45.2446Q29.994 45.8196 29.8729 46.3677Q29.7709 46.8291 29.5831 47.2715Q29.4116 47.6755 29.1789 48.0405Q28.8722 48.5214 28.4592 48.9344Q28.0994 49.2942 27.6862 49.5753Q27.2642 49.8623 26.7865 50.0673Q26.371 50.2456 25.9377 50.351Z" clip-rule="evenodd" fill="url(#paint_linear_1_59_1)" fill-opacity="1.000000" fill-rule="evenodd"/>
	</g>
</svg>
