<svg width="41.000061" height="41.000244" viewBox="0 0 41.0001 41.0002" fill="none" xmlns="http://www.w3.org/2000/svg" xmlns:xlink="http://www.w3.org/1999/xlink">
	<desc>
			Created with Pixso.
	</desc>
	<defs/>
	<path id="Vector" d="M2.28 41L1.2 41C0.53 41 0 40.46 0 39.79L0 38.71C0 35.81 0.73 32.94 2.13 30.4C3.53 27.87 5.56 25.72 8 24.17C8.47 23.86 9.09 23.93 9.49 24.33L16.66 31.5C17.06 31.9 17.12 32.52 16.82 32.99C15.27 35.43 13.12 37.46 10.59 38.86C8.05 40.26 5.18 41 2.28 41Z" fill="#FF9737" fill-opacity="1.000000" fill-rule="nonzero"/>
	<path id="Vector" d="M1.2 41L2.28 41C5.18 41 8.05 40.26 10.59 38.86C13.12 37.46 15.27 35.43 16.82 33C17.13 32.52 17.06 31.9 16.66 31.5L13.07 27.92L0.35 40.64C0.56 40.86 0.86 41 1.2 41Z" fill="#FF6108" fill-opacity="1.000000" fill-rule="nonzero"/>
	<path id="Vector" d="M25.81 39.03C25.75 39.03 25.69 39.02 25.62 39.01C25.24 38.95 24.91 38.71 24.74 38.36L21.21 31.3C20.95 30.78 21.1 30.15 21.57 29.8L32 22.03C32.35 21.77 32.82 21.72 33.22 21.9C33.61 22.08 33.88 22.46 33.92 22.9C34.31 27.92 32.49 32.85 28.93 36.41L26.66 38.67C26.44 38.9 26.13 39.03 25.81 39.03Z" fill="#0167FF" fill-opacity="1.000000" fill-rule="nonzero"/>
	<path id="Vector" d="M10.23 19.91C10.04 19.91 9.86 19.87 9.69 19.78L2.63 16.25C2.28 16.08 2.04 15.75 1.98 15.37C1.92 14.99 2.04 14.6 2.32 14.33L4.58 12.06C8.14 8.5 13.07 6.68 18.09 7.07C18.53 7.11 18.91 7.38 19.09 7.77C19.27 8.17 19.22 8.64 18.96 8.99L11.19 19.42C10.96 19.74 10.6 19.91 10.23 19.91Z" fill="#3685FB" fill-opacity="1.000000" fill-rule="nonzero"/>
	<path id="Vector" d="M39.53 13.17C36.46 13 33.59 11.72 31.43 9.56C29.27 7.4 27.99 4.53 27.82 1.46L27.8 1.06C23.83 2.25 20.16 4.41 17.14 7.42L17.08 7.48C12.42 12.15 8.88 17.64 6.57 23.81C6.4 24.25 6.51 24.75 6.85 25.08L15.91 34.14C16.13 34.37 16.44 34.5 16.75 34.5C16.9 34.5 17.04 34.47 17.18 34.42C23.35 32.11 28.84 28.57 33.51 23.91L33.57 23.85C36.58 20.83 38.74 17.16 39.93 13.19L39.53 13.17Z" fill="#E6F3FF" fill-opacity="1.000000" fill-rule="nonzero"/>
	<path id="Vector" d="M15.91 34.14C16.13 34.37 16.44 34.5 16.75 34.5C16.9 34.5 17.04 34.47 17.18 34.42C23.35 32.11 28.84 28.57 33.51 23.91L33.57 23.85C36.58 20.83 38.74 17.16 39.93 13.19L39.53 13.17C36.46 13 33.59 11.72 31.43 9.56L11.38 29.61L15.91 34.14Z" fill="#D2DCF0" fill-opacity="1.000000" fill-rule="nonzero"/>
	<path id="Vector" d="M40.59 1.37C40.5 0.88 40.11 0.49 39.62 0.4C35.33 -0.38 30.99 -0.03 26.97 1.33L27.02 2.26C27.19 5.33 28.47 8.21 30.63 10.36C32.78 12.52 35.66 13.8 38.73 13.97L39.66 14.02C41.02 10.01 41.37 5.66 40.59 1.37Z" fill="#3685FB" fill-opacity="1.000000" fill-rule="nonzero"/>
	<path id="Vector" d="M30.63 10.36C32.78 12.52 35.66 13.8 38.73 13.97L39.66 14.02C41.02 10.01 41.37 5.66 40.59 1.37C40.54 1.13 40.42 0.91 40.25 0.74L30.63 10.36Z" fill="#0167FF" fill-opacity="1.000000" fill-rule="nonzero"/>
	<path id="Vector" d="M25.25 20.95C23.86 20.95 22.55 20.41 21.57 19.42C20.58 18.44 20.04 17.13 20.04 15.74C20.04 14.35 20.58 13.04 21.57 12.06C22.55 11.08 23.86 10.54 25.25 10.54C26.64 10.54 27.95 11.08 28.93 12.06C29.91 13.04 30.45 14.35 30.45 15.74C30.45 17.13 29.91 18.44 28.93 19.42C27.95 20.41 26.64 20.95 25.25 20.95Z" fill="#3685FB" fill-opacity="1.000000" fill-rule="nonzero"/>
	<path id="Vector" d="M8.83 33.36C8.52 33.36 8.21 33.25 7.98 33.01C7.51 32.54 7.51 31.78 7.98 31.31L18.17 21.12C18.64 20.65 19.4 20.65 19.87 21.12C20.34 21.59 20.34 22.35 19.87 22.82L9.68 33.01C9.44 33.25 9.13 33.36 8.83 33.36Z" fill="#3685FB" fill-opacity="1.000000" fill-rule="nonzero"/>
	<path id="Vector" d="M21.57 19.42C22.55 20.41 23.86 20.95 25.25 20.95C26.64 20.95 27.95 20.41 28.93 19.42C29.91 18.44 30.45 17.13 30.45 15.74C30.45 14.35 29.91 13.04 28.93 12.06L21.57 19.42Z" fill="#0167FF" fill-opacity="1.000000" fill-rule="nonzero"/>
	<path id="Vector" d="M7.98 33.01C8.21 33.25 8.52 33.36 8.83 33.36C9.13 33.36 9.44 33.25 9.68 33.01L19.87 22.82C20.34 22.35 20.34 21.59 19.87 21.12C19.87 21.12 19.87 21.12 19.87 21.12L7.98 33.01Z" fill="#0167FF" fill-opacity="1.000000" fill-rule="nonzero"/>
	<path id="Vector" d="M25.25 18.54C24.5 18.54 23.8 18.25 23.27 17.72C22.74 17.19 22.45 16.49 22.45 15.74C22.45 14.99 22.74 14.29 23.27 13.76C23.8 13.23 24.5 12.94 25.25 12.94C26 12.94 26.7 13.23 27.23 13.76C27.76 14.29 28.05 14.99 28.05 15.74C28.05 16.49 27.76 17.19 27.23 17.72C26.7 18.25 26 18.54 25.25 18.54Z" fill="#00F2D9" fill-opacity="1.000000" fill-rule="nonzero"/>
	<path id="Vector" d="M23.27 17.72C23.8 18.25 24.5 18.54 25.25 18.54C26 18.54 26.7 18.25 27.23 17.72C27.76 17.19 28.05 16.49 28.05 15.74C28.05 14.99 27.76 14.29 27.23 13.76L23.27 17.72Z" fill="#00B3A0" fill-opacity="1.000000" fill-rule="nonzero"/>
</svg>
