<svg width="40.000000" height="41.290283" viewBox="0 0 40 41.2903" fill="none" xmlns="http://www.w3.org/2000/svg" xmlns:xlink="http://www.w3.org/1999/xlink">
	<desc>
			Created with Pixso.
	</desc>
	<defs/>
	<path id="Vector" d="M28.99 20.47C28.99 25.7 24.89 29.93 19.83 29.93C18.88 29.93 17.97 29.78 17.12 29.51C17.49 28.88 18.05 27.85 18.25 27.03C18.36 26.58 18.82 24.78 18.82 24.78C19.12 25.36 19.99 25.86 20.92 25.86C23.69 25.86 25.68 23.24 25.68 19.98C25.68 16.85 23.21 14.51 20.03 14.51C16.07 14.51 13.97 17.25 13.97 20.24C13.97 21.63 14.69 23.36 15.83 23.91C16 23.99 16.1 23.95 16.14 23.78C16.17 23.65 16.32 23.01 16.39 22.71C16.41 22.61 16.4 22.53 16.33 22.44C15.95 21.96 15.65 21.09 15.65 20.28C15.65 18.19 17.18 16.17 19.79 16.17C22.04 16.17 23.62 17.76 23.62 20.02C23.62 22.58 22.37 24.36 20.74 24.36C19.84 24.36 19.16 23.59 19.38 22.65C19.64 21.52 20.14 20.31 20.14 19.5C20.14 18.77 19.76 18.16 18.98 18.16C18.06 18.16 17.32 19.14 17.32 20.46C17.32 21.3 17.59 21.86 17.59 21.86C17.59 21.86 16.69 25.83 16.52 26.57C16.34 27.38 16.41 28.53 16.49 29.28C13.08 27.9 10.66 24.48 10.66 20.47C10.66 15.24 14.76 11.01 19.83 11.01C24.89 11.01 28.99 15.24 28.99 20.47Z" fill="#697687" fill-opacity="1.000000" fill-rule="nonzero"/>
	<path id="Vector" d="M28.99 20.47C28.99 25.7 24.89 29.93 19.83 29.93C18.9 29.93 18.01 29.79 17.16 29.52C17.15 29.52 17.13 29.51 17.12 29.51C17.12 29.49 17.13 29.48 17.14 29.46C17.51 28.83 18.05 27.83 18.25 27.03C18.35 26.64 18.72 25.18 18.81 24.85C18.82 24.8 18.82 24.78 18.82 24.78C18.83 24.8 18.85 24.82 18.86 24.84C19.19 25.4 20.03 25.86 20.92 25.86C23.69 25.86 25.68 23.24 25.68 19.98C25.68 16.85 23.21 14.51 20.03 14.51C16.07 14.51 13.97 17.25 13.97 20.24C13.97 21.63 14.69 23.36 15.83 23.91C16 23.99 16.1 23.95 16.14 23.78C16.17 23.65 16.32 23.01 16.39 22.71C16.41 22.61 16.4 22.53 16.33 22.44C15.95 21.96 15.65 21.09 15.65 20.28C15.65 18.19 17.18 16.17 19.79 16.17C22.04 16.17 23.62 17.76 23.62 20.02C23.62 22.58 22.37 24.36 20.74 24.36C19.84 24.36 19.16 23.59 19.38 22.65C19.64 21.52 20.14 20.31 20.14 19.5C20.14 18.77 19.76 18.16 18.98 18.16C18.06 18.16 17.32 19.14 17.32 20.46C17.32 21.3 17.59 21.86 17.59 21.86C17.59 21.86 16.69 25.83 16.52 26.57C16.34 27.36 16.41 28.48 16.48 29.23C16.48 29.25 16.49 29.26 16.49 29.28C16.47 29.28 16.45 29.27 16.44 29.26C13.05 27.87 10.66 24.46 10.66 20.47C10.66 15.24 14.76 11.01 19.83 11.01C24.89 11.01 28.99 15.24 28.99 20.47ZM16.43 29.21C16.15 29.09 15.88 28.96 15.62 28.82C15.11 28.55 14.63 28.22 14.17 27.85C13.89 27.62 13.62 27.37 13.37 27.11C12.99 26.72 12.65 26.29 12.34 25.83C12.1 25.48 11.88 25.11 11.7 24.73C11.47 24.28 11.29 23.81 11.14 23.33C11.04 22.99 10.95 22.66 10.89 22.31C10.77 21.71 10.71 21.09 10.71 20.47C10.71 19.71 10.79 18.98 10.96 18.26C11.08 17.77 11.23 17.28 11.43 16.8C11.68 16.19 11.99 15.61 12.35 15.07C12.66 14.63 13 14.21 13.38 13.81C13.89 13.29 14.44 12.83 15.04 12.45C15.44 12.2 15.85 11.98 16.28 11.79C16.82 11.56 17.37 11.38 17.93 11.26C18.55 11.12 19.18 11.05 19.83 11.05C20.48 11.05 21.11 11.12 21.72 11.26C22.29 11.38 22.84 11.56 23.38 11.79C23.81 11.98 24.22 12.2 24.61 12.45C25.21 12.83 25.77 13.29 26.28 13.81C26.66 14.21 27 14.63 27.3 15.07C27.67 15.61 27.98 16.19 28.23 16.8C28.43 17.28 28.58 17.77 28.7 18.26C28.86 18.98 28.95 19.71 28.95 20.47C28.95 21.22 28.86 21.96 28.7 22.67C28.58 23.17 28.43 23.66 28.23 24.13C27.98 24.75 27.67 25.32 27.3 25.86C27 26.31 26.66 26.73 26.28 27.13C25.77 27.65 25.21 28.1 24.61 28.49C24.22 28.74 23.81 28.95 23.38 29.14C22.84 29.38 22.29 29.56 21.72 29.68C21.11 29.81 20.47 29.88 19.83 29.88C19.35 29.88 18.87 29.84 18.41 29.77C18 29.7 17.59 29.6 17.19 29.48C17.42 29.09 17.62 28.72 17.79 28.36C18.04 27.85 18.21 27.41 18.3 27.04L18.57 25.96L18.84 24.91C18.91 25.02 19 25.13 19.11 25.23C19.26 25.36 19.42 25.48 19.61 25.58C19.84 25.7 20.06 25.79 20.3 25.84C20.5 25.89 20.71 25.91 20.92 25.91C21.3 25.91 21.66 25.87 22.01 25.77C22.3 25.7 22.58 25.59 22.85 25.45C22.91 25.42 22.96 25.39 23.02 25.36C23.53 25.07 23.98 24.67 24.38 24.17C24.81 23.63 25.14 23 25.37 22.29C25.61 21.56 25.73 20.79 25.73 19.98C25.73 19.41 25.65 18.87 25.5 18.36C25.44 18.16 25.37 17.97 25.29 17.78C25.15 17.47 24.99 17.17 24.8 16.89C24.59 16.58 24.35 16.3 24.08 16.04C23.9 15.86 23.7 15.7 23.5 15.55C23.13 15.28 22.72 15.06 22.27 14.88C22.12 14.82 21.97 14.77 21.82 14.72C21.25 14.55 20.65 14.46 20.03 14.46C19.06 14.46 18.19 14.62 17.39 14.94C16.87 15.15 16.39 15.43 15.97 15.77C15.8 15.91 15.63 16.06 15.48 16.22C15.31 16.4 15.15 16.59 15.01 16.79C14.72 17.18 14.49 17.6 14.31 18.07C14.26 18.22 14.21 18.37 14.16 18.52C14 19.07 13.92 19.64 13.92 20.24C13.92 20.59 13.96 20.96 14.05 21.33C14.14 21.71 14.27 22.07 14.43 22.41C14.6 22.76 14.79 23.07 15.02 23.33C15.26 23.61 15.53 23.81 15.81 23.95C15.91 24 15.99 24.01 16.05 23.98C16.06 23.98 16.06 23.98 16.07 23.98C16.12 23.95 16.16 23.89 16.18 23.79L16.33 23.19L16.44 22.72C16.45 22.66 16.45 22.61 16.44 22.56C16.43 22.5 16.4 22.45 16.37 22.41C16.18 22.16 16.02 21.85 15.9 21.47C15.77 21.06 15.7 20.67 15.7 20.28C15.7 20 15.73 19.72 15.78 19.46C15.83 19.22 15.89 19 15.98 18.77C16.1 18.44 16.26 18.14 16.46 17.87C16.56 17.73 16.66 17.6 16.78 17.48C16.96 17.28 17.15 17.11 17.36 16.97C17.57 16.81 17.81 16.67 18.06 16.56C18.07 16.56 18.09 16.55 18.1 16.55C18.62 16.33 19.18 16.22 19.79 16.22C20.34 16.22 20.85 16.31 21.32 16.5C21.63 16.62 21.91 16.78 22.16 16.97C22.29 17.07 22.4 17.17 22.52 17.28C22.62 17.38 22.71 17.49 22.8 17.61C23 17.87 23.17 18.16 23.29 18.48C23.48 18.96 23.57 19.47 23.57 20.02C23.57 20.65 23.5 21.23 23.35 21.77C23.21 22.28 23.01 22.74 22.75 23.12C22.49 23.5 22.19 23.79 21.85 24C21.65 24.12 21.43 24.21 21.21 24.26C21.06 24.29 20.9 24.31 20.74 24.31C20.58 24.31 20.44 24.28 20.3 24.24C20.24 24.22 20.19 24.2 20.14 24.18C20.03 24.13 19.93 24.06 19.84 23.99C19.78 23.94 19.73 23.88 19.68 23.82C19.62 23.75 19.57 23.68 19.53 23.6C19.48 23.51 19.45 23.41 19.42 23.3C19.42 23.27 19.41 23.24 19.41 23.22C19.38 23.04 19.38 22.85 19.43 22.66C19.49 22.39 19.6 21.98 19.77 21.43C19.91 20.96 20.01 20.61 20.06 20.39C20.14 20.03 20.19 19.73 20.19 19.5C20.19 19.12 20.1 18.81 19.92 18.56C19.91 18.55 19.9 18.54 19.89 18.53C19.81 18.43 19.72 18.35 19.62 18.28C19.44 18.17 19.23 18.11 18.98 18.11C18.89 18.11 18.81 18.12 18.72 18.14C18.58 18.17 18.44 18.22 18.31 18.29C18.1 18.41 17.92 18.58 17.76 18.79C17.61 19 17.49 19.25 17.4 19.53C17.31 19.82 17.27 20.13 17.27 20.46C17.27 20.76 17.3 21.06 17.37 21.35C17.38 21.4 17.4 21.44 17.41 21.49C17.45 21.65 17.5 21.78 17.54 21.87L16.99 24.26L16.47 26.55C16.33 27.18 16.32 28.07 16.43 29.21Z" fill="#697687" fill-opacity="1.000000" fill-rule="evenodd"/>
	<rect id="Rectangle 70" x="0.500000" y="0.500000" rx="19.500000" width="39.000000" height="40.290321" stroke="#697687" stroke-opacity="1.000000" stroke-width="1.000000"/>
</svg>
