<svg width="40.000000" height="41.290283" viewBox="0 0 40 41.2903" fill="none" xmlns="http://www.w3.org/2000/svg" xmlns:xlink="http://www.w3.org/1999/xlink">
	<desc>
			Created with Pixso.
	</desc>
	<defs>
		<clipPath id="clip1_495">
			<rect id="instagram" rx="0.000000" width="15.666668" height="16.204302" transform="translate(12.351929 12.734375)" fill="white" fill-opacity="0"/>
		</clipPath>
	</defs>
	<rect id="instagram" rx="0.000000" width="15.666668" height="16.204302" transform="translate(12.351929 12.734375)" fill="#000000" fill-opacity="0"/>
	<g clip-path="url(#clip1_495)">
		<path id="Vector" d="M20.18 16.97C18.11 16.97 16.44 18.69 16.44 20.83C16.44 22.97 18.11 24.69 20.18 24.69C22.25 24.69 23.92 22.97 23.92 20.83C23.92 18.69 22.25 16.97 20.18 16.97ZM20.18 23.34C18.85 23.34 17.75 22.21 17.75 20.83C17.75 19.44 18.84 18.32 20.18 18.32C21.52 18.32 22.62 19.44 22.62 20.83C22.62 22.21 21.52 23.34 20.18 23.34ZM24.95 16.81C24.95 17.31 24.56 17.71 24.08 17.71C23.59 17.71 23.2 17.31 23.2 16.81C23.2 16.31 23.59 15.91 24.08 15.91C24.56 15.91 24.95 16.31 24.95 16.81ZM27.43 17.72C27.37 16.52 27.1 15.45 26.25 14.57C25.4 13.69 24.36 13.41 23.19 13.35C21.99 13.28 18.38 13.28 17.17 13.35C16.01 13.41 14.97 13.68 14.12 14.56C13.26 15.45 13 16.51 12.94 17.72C12.87 18.96 12.87 22.69 12.94 23.93C12.99 25.14 13.26 26.21 14.12 27.09C14.97 27.97 16 28.24 17.17 28.3C18.38 28.38 21.99 28.38 23.19 28.3C24.36 28.25 25.4 27.97 26.25 27.09C27.1 26.21 27.37 25.14 27.43 23.93C27.49 22.69 27.49 18.97 27.43 17.72ZM25.87 25.27C25.62 25.93 25.12 26.43 24.48 26.7C23.52 27.09 21.24 27 20.18 27C19.12 27 16.84 27.09 15.88 26.7C15.25 26.44 14.75 25.93 14.5 25.27C14.12 24.28 14.2 21.92 14.2 20.83C14.2 19.73 14.12 17.38 14.5 16.39C14.75 15.73 15.24 15.22 15.88 14.96C16.84 14.56 19.12 14.66 20.18 14.66C21.24 14.66 23.53 14.57 24.48 14.96C25.12 15.22 25.61 15.73 25.87 16.39C26.25 17.38 26.16 19.73 26.16 20.83C26.16 21.92 26.25 24.28 25.87 25.27Z" fill="#697687" fill-opacity="1.000000" fill-rule="nonzero"/>
		<path id="Vector" d="M27.43 17.72C27.37 16.52 27.1 15.45 26.25 14.57C25.4 13.69 24.36 13.41 23.19 13.35C21.99 13.28 18.38 13.28 17.17 13.35C16.01 13.41 14.97 13.68 14.12 14.56C13.26 15.45 13 16.51 12.94 17.72C12.87 18.96 12.87 22.69 12.94 23.93C12.99 25.14 13.26 26.21 14.12 27.09C14.97 27.97 16 28.24 17.17 28.3C18.38 28.38 21.99 28.38 23.19 28.3C24.36 28.25 25.4 27.97 26.25 27.09C27.1 26.21 27.37 25.14 27.43 23.93C27.49 22.69 27.49 18.97 27.43 17.72ZM25.54 14.05C25.78 14.2 26.01 14.39 26.21 14.6L26.21 14.6C26.37 14.77 26.52 14.95 26.65 15.14C26.83 15.41 26.98 15.71 27.09 16.04C27.25 16.51 27.35 17.07 27.38 17.73C27.41 18.35 27.43 19.38 27.43 20.83C27.43 22.28 27.41 23.31 27.38 23.93C27.35 24.59 27.25 25.15 27.09 25.62C26.97 25.95 26.82 26.26 26.63 26.54C26.51 26.72 26.37 26.89 26.21 27.05C26 27.27 25.77 27.46 25.52 27.62C25.3 27.76 25.07 27.87 24.82 27.96C24.37 28.13 23.82 28.23 23.19 28.26C22.59 28.29 21.59 28.31 20.18 28.31C18.78 28.31 17.78 28.29 17.17 28.26C16.54 28.22 16 28.12 15.54 27.96C15.3 27.87 15.07 27.76 14.86 27.62C14.6 27.47 14.37 27.28 14.15 27.05C13.99 26.89 13.84 26.71 13.72 26.52C13.53 26.24 13.38 25.94 13.27 25.62C13.11 25.15 13.02 24.58 12.99 23.93C12.95 23.31 12.93 22.28 12.93 20.83C12.93 19.38 12.95 18.34 12.99 17.72C13.02 17.07 13.11 16.5 13.27 16.04C13.39 15.7 13.54 15.4 13.73 15.12C13.85 14.93 13.99 14.76 14.15 14.6C14.36 14.38 14.6 14.19 14.85 14.03C15.07 13.9 15.3 13.78 15.54 13.7C16 13.53 16.54 13.43 17.18 13.4C17.78 13.37 18.78 13.35 20.18 13.35C21.59 13.35 22.59 13.37 23.19 13.4C23.82 13.43 24.37 13.53 24.82 13.7C25.07 13.79 25.31 13.91 25.54 14.05ZM22.72 27.03C23.54 26.99 24.14 26.89 24.5 26.74L24.5 26.74C24.69 26.67 24.86 26.57 25.02 26.45C25.14 26.37 25.25 26.27 25.36 26.16C25.43 26.08 25.51 26 25.57 25.91C25.71 25.72 25.83 25.51 25.92 25.28C26.06 24.91 26.15 24.3 26.19 23.45C26.22 22.97 26.22 22.27 26.22 21.36C26.21 21.11 26.21 20.93 26.21 20.83C26.21 20.72 26.21 20.55 26.22 20.29C26.22 19.38 26.22 18.69 26.19 18.21C26.15 17.36 26.06 16.75 25.92 16.37C25.82 16.13 25.7 15.91 25.55 15.71C25.49 15.63 25.42 15.56 25.35 15.49C25.24 15.37 25.12 15.27 24.99 15.18C24.84 15.07 24.68 14.98 24.5 14.91C24.14 14.76 23.54 14.67 22.72 14.63C22.25 14.6 21.58 14.59 20.69 14.6C20.45 14.61 20.28 14.61 20.18 14.61C20.08 14.61 19.91 14.61 19.66 14.6C18.78 14.59 18.11 14.6 17.64 14.62C16.82 14.67 16.23 14.76 15.86 14.91C15.68 14.99 15.5 15.09 15.34 15.2C15.22 15.29 15.11 15.39 15.01 15.49C14.93 15.57 14.86 15.66 14.8 15.74C14.65 15.93 14.54 16.14 14.45 16.37C14.31 16.75 14.21 17.36 14.17 18.21C14.15 18.69 14.14 19.39 14.15 20.3C14.15 20.55 14.15 20.73 14.15 20.83C14.15 20.93 14.15 21.11 14.15 21.36C14.14 22.27 14.15 22.97 14.17 23.45C14.21 24.3 14.31 24.91 14.45 25.28C14.55 25.53 14.67 25.75 14.82 25.95C14.88 26.02 14.94 26.1 15.01 26.17C15.12 26.28 15.25 26.39 15.37 26.48C15.53 26.58 15.69 26.67 15.86 26.74C16.23 26.89 16.82 26.99 17.65 27.03C18.12 27.05 18.79 27.06 19.68 27.05C19.92 27.05 20.08 27.05 20.18 27.05C20.28 27.05 20.46 27.05 20.7 27.05C21.58 27.06 22.26 27.06 22.72 27.03ZM25.87 25.27C25.62 25.93 25.12 26.43 24.48 26.7C23.66 27.04 21.87 27.02 20.7 27C20.51 27 20.33 27 20.18 27C20.04 27 19.86 27 19.67 27C18.51 27.02 16.71 27.03 15.88 26.7C15.25 26.44 14.75 25.93 14.5 25.27C14.17 24.42 14.19 22.57 14.2 21.36C14.2 21.17 14.2 20.98 14.2 20.83C14.2 20.68 14.2 20.5 14.2 20.3C14.19 19.1 14.17 17.24 14.5 16.39C14.75 15.73 15.24 15.22 15.88 14.96C16.71 14.62 18.5 14.64 19.66 14.65C19.86 14.65 20.03 14.66 20.18 14.66C20.33 14.66 20.5 14.65 20.69 14.65C21.86 14.64 23.66 14.62 24.48 14.96C25.12 15.22 25.61 15.73 25.87 16.39C26.2 17.24 26.18 19.09 26.17 20.29C26.17 20.49 26.16 20.67 26.16 20.83C26.16 20.98 26.17 21.17 26.17 21.36C26.18 22.57 26.2 24.42 25.87 25.27ZM24.95 16.81C24.95 17.31 24.56 17.71 24.08 17.71C23.59 17.71 23.2 17.31 23.2 16.81C23.2 16.31 23.59 15.91 24.08 15.91C24.56 15.91 24.95 16.31 24.95 16.81ZM24.38 17.6C24.29 17.64 24.19 17.66 24.08 17.66C23.97 17.66 23.86 17.64 23.77 17.6C23.67 17.56 23.58 17.5 23.49 17.41C23.42 17.34 23.36 17.25 23.32 17.16C23.28 17.05 23.25 16.94 23.25 16.81C23.25 16.68 23.28 16.57 23.32 16.46C23.36 16.37 23.42 16.28 23.49 16.21C23.58 16.12 23.67 16.05 23.78 16.01C23.87 15.98 23.97 15.96 24.08 15.96C24.18 15.96 24.28 15.98 24.38 16.01C24.48 16.05 24.57 16.12 24.66 16.21C24.73 16.28 24.79 16.37 24.83 16.46C24.88 16.57 24.9 16.68 24.9 16.81C24.9 16.94 24.88 17.06 24.83 17.16C24.79 17.25 24.73 17.34 24.66 17.41C24.58 17.5 24.48 17.56 24.38 17.6ZM20.18 16.97C18.11 16.97 16.44 18.69 16.44 20.83C16.44 22.97 18.11 24.69 20.18 24.69C22.25 24.69 23.92 22.97 23.92 20.83C23.92 18.69 22.25 16.97 20.18 16.97ZM16.6 21.75C16.53 21.45 16.49 21.14 16.49 20.83C16.49 20.51 16.53 20.21 16.6 19.91C16.64 19.72 16.71 19.53 16.78 19.34C16.88 19.09 17.01 18.85 17.16 18.63C17.28 18.45 17.42 18.29 17.57 18.13C17.78 17.92 18 17.74 18.24 17.59C18.4 17.48 18.57 17.39 18.75 17.31C18.96 17.22 19.17 17.15 19.39 17.1C19.65 17.04 19.91 17.02 20.18 17.02C20.45 17.02 20.72 17.04 20.97 17.1C21.19 17.15 21.41 17.22 21.62 17.31C21.8 17.39 21.97 17.48 22.13 17.59C22.37 17.74 22.59 17.92 22.79 18.13C22.95 18.29 23.08 18.45 23.2 18.63C23.36 18.85 23.48 19.09 23.59 19.34C23.66 19.53 23.72 19.72 23.77 19.91C23.84 20.21 23.87 20.51 23.87 20.83C23.87 21.14 23.84 21.45 23.77 21.75C23.72 21.94 23.66 22.13 23.59 22.31C23.48 22.57 23.36 22.8 23.2 23.02C23.08 23.2 22.95 23.37 22.79 23.53C22.59 23.74 22.37 23.92 22.13 24.07C21.97 24.17 21.8 24.26 21.62 24.34C21.41 24.43 21.19 24.5 20.97 24.55C20.72 24.61 20.45 24.64 20.18 24.64C19.91 24.64 19.65 24.61 19.39 24.55C19.17 24.5 18.96 24.43 18.75 24.34C18.57 24.26 18.4 24.17 18.24 24.07C18 23.92 17.78 23.74 17.57 23.53C17.42 23.37 17.28 23.2 17.16 23.02C17.01 22.8 16.89 22.57 16.78 22.31C16.71 22.13 16.64 21.94 16.6 21.75ZM17.77 20.24C17.72 20.43 17.7 20.63 17.7 20.83C17.7 21.03 17.72 21.22 17.77 21.41C17.8 21.55 17.84 21.69 17.9 21.82C17.97 21.99 18.05 22.14 18.14 22.28C18.23 22.41 18.32 22.53 18.43 22.64C18.57 22.78 18.72 22.9 18.89 23.01C18.99 23.08 19.1 23.13 19.22 23.19C19.37 23.25 19.53 23.3 19.69 23.34C19.85 23.37 20.02 23.39 20.18 23.39C20.35 23.39 20.52 23.37 20.68 23.34C20.84 23.3 20.99 23.25 21.15 23.19C21.26 23.13 21.37 23.08 21.48 23.01C21.64 22.91 21.8 22.78 21.94 22.64C22.04 22.53 22.14 22.41 22.22 22.28C22.32 22.14 22.4 21.99 22.47 21.82C22.52 21.69 22.57 21.55 22.6 21.41C22.64 21.22 22.66 21.03 22.66 20.83C22.66 20.63 22.64 20.43 22.6 20.24C22.57 20.1 22.52 19.97 22.47 19.83C22.4 19.67 22.32 19.51 22.22 19.37C22.14 19.25 22.04 19.13 21.94 19.02C21.8 18.88 21.65 18.75 21.48 18.65C21.38 18.58 21.27 18.52 21.15 18.47C21 18.41 20.84 18.36 20.69 18.32C20.52 18.29 20.36 18.27 20.18 18.27C20.01 18.27 19.84 18.29 19.68 18.32C19.52 18.36 19.37 18.41 19.22 18.47C19.1 18.52 18.99 18.58 18.88 18.65C18.72 18.75 18.57 18.88 18.43 19.02C18.32 19.13 18.23 19.25 18.15 19.37C18.05 19.51 17.97 19.67 17.9 19.83C17.84 19.97 17.8 20.1 17.77 20.24ZM20.18 23.34C18.85 23.34 17.75 22.21 17.75 20.83C17.75 19.44 18.84 18.32 20.18 18.32C21.52 18.32 22.62 19.44 22.62 20.83C22.62 22.21 21.52 23.34 20.18 23.34Z" fill="#697687" fill-opacity="1.000000" fill-rule="evenodd"/>
	</g>
	<rect id="Rectangle 74" x="0.500000" y="0.500000" rx="19.500000" width="39.000000" height="40.290321" stroke="#697687" stroke-opacity="1.000000" stroke-width="1.000000"/>
</svg>
