<svg width="30.000000" height="30.000000" viewBox="0 0 30 30" fill="none" xmlns="http://www.w3.org/2000/svg" xmlns:xlink="http://www.w3.org/1999/xlink">
	<desc>
			Created with Pixso.
	</desc>
	<defs>
		<clipPath id="clip1_238">
			<rect id="quotation 1" rx="0.000000" width="29.000000" height="29.000000" transform="translate(0.500000 0.500000)" fill="white" fill-opacity="0"/>
		</clipPath>
	</defs>
	<rect id="quotation 1" rx="0.000000" width="29.000000" height="29.000000" transform="translate(0.500000 0.500000)" fill="#FFFFFF" fill-opacity="0"/>
	<g clip-path="url(#clip1_238)">
		<path id="Vector" d="M0 16.58L7.85 16.58L7.85 18.87C7.85 20.18 6.78 21.24 5.47 21.24L2.46 21.24L2.46 27.1L5.47 27.1C10.01 27.1 13.71 23.41 13.71 18.87L13.71 2.87L0 2.87L0 16.58Z" fill="#3685FB" fill-opacity="1.000000" fill-rule="nonzero"/>
		<path id="Vector" d="M16.28 2.87L16.28 16.58L24.14 16.58L24.14 18.87C24.14 20.18 23.07 21.24 21.76 21.24L18.75 21.24L18.75 27.1L21.76 27.1C26.3 27.1 30 23.41 30 18.87L30 2.87L16.28 2.87Z" fill="#3685FB" fill-opacity="1.000000" fill-rule="nonzero"/>
	</g>
</svg>
