<svg width="50.000000" height="50.000000" viewBox="0 0 50 50" fill="none" xmlns="http://www.w3.org/2000/svg" xmlns:xlink="http://www.w3.org/1999/xlink">
	<desc>
			Created with Pixso.
	</desc>
	<defs/>
	<rect id="Rectangle 11" rx="5.000000" width="50.000004" height="49.999996" transform="matrix(1 -8.74228e-08 -8.74228e-08 -1 0 50)" fill="#FFFFFF" fill-opacity="1.000000"/>
	<path id="Vector" d="M28.56 17.44C28.84 17.73 29 18.11 29 18.51C29 18.92 28.84 19.3 28.56 19.58L23.27 25.03L28.56 30.41C28.84 30.69 29 31.08 29 31.48C29 31.88 28.84 32.26 28.56 32.55C28.42 32.69 28.26 32.8 28.07 32.88C27.89 32.96 27.7 33 27.5 33C27.3 33 27.11 32.96 26.93 32.88C26.74 32.8 26.58 32.69 26.44 32.55L20.11 26.11C19.97 25.97 19.86 25.8 19.78 25.62C19.7 25.43 19.66 25.23 19.66 25.03C19.66 24.83 19.7 24.63 19.78 24.45C19.86 24.26 19.97 24.1 20.11 23.96L26.44 17.44C26.58 17.3 26.74 17.19 26.93 17.11C27.11 17.03 27.3 17 27.5 17C27.7 17 27.89 17.03 28.07 17.11C28.26 17.19 28.42 17.3 28.56 17.44Z" fill="#697687" fill-opacity="1.000000" fill-rule="nonzero"/>
</svg>
