<svg width="170.000000" height="60.000000" viewBox="0 0 170 60" fill="none" xmlns="http://www.w3.org/2000/svg" xmlns:xlink="http://www.w3.org/1999/xlink">
	<desc>
			Created with Pixso.
	</desc>
	<defs/>
	<rect id="Rectangle 3" rx="10.000000" width="170.000000" height="60.000000" fill="#3685FB" fill-opacity="1.000000"/>
	<path id="Contact Us" d="M46.58 35.75C47.15 35.95 47.77 36.04 48.42 36.04Q49.63 36.04 50.64 35.63Q51.34 35.34 51.9 34.88Q52.15 34.68 52.37 34.44C52.86 33.93 53.22 33.33 53.44 32.64L51.14 32.06C50.86 32.65 50.49 33.09 50.02 33.4C49.56 33.7 49.02 33.85 48.42 33.85Q47.78 33.85 47.23 33.63Q47.17 33.6 47.12 33.58C46.74 33.4 46.4 33.14 46.11 32.81Q45.68 32.3 45.44 31.61Q45.22 30.92 45.22 30.09C45.22 29.54 45.3 29.02 45.46 28.56Q45.7 27.85 46.11 27.34C46.4 26.99 46.74 26.72 47.12 26.52C47.52 26.33 47.94 26.24 48.38 26.24Q48.94 26.24 49.42 26.43Q49.7 26.54 49.95 26.72C50.41 27.02 50.77 27.46 51.02 28.03L53.33 27.45Q53.13 26.81 52.78 26.28Q52.7 26.16 52.61 26.04Q52.4 25.76 52.15 25.51Q51.85 25.22 51.5 24.97C51.08 24.67 50.6 24.44 50.08 24.28Q49.3 24.04 48.42 24.04Q47.55 24.04 46.75 24.29Q46.67 24.32 46.59 24.35C46.03 24.54 45.51 24.82 45.04 25.2Q44.93 25.28 44.83 25.37Q44.26 25.86 43.82 26.51Q43.31 27.26 43.02 28.19Q42.75 29.1 42.75 30.12Q42.75 31.15 43.02 32.06Q43.3 32.96 43.79 33.69Q44.07 34.08 44.4 34.41Q44.69 34.7 45.01 34.94Q45.13 35.03 45.25 35.11Q45.86 35.52 46.58 35.75ZM112.25 35.71C112.84 35.93 113.52 36.04 114.26 36.04C115.01 36.04 115.68 35.93 116.28 35.71C116.89 35.47 117.4 35.14 117.83 34.72Q118.05 34.5 118.23 34.26Q118.6 33.77 118.82 33.16Q119.18 32.25 119.18 31.13L119.18 24.36L116.79 24.36L116.79 31.02Q116.79 31.88 116.47 32.52C116.27 32.95 115.98 33.28 115.61 33.52C115.23 33.74 114.79 33.85 114.28 33.85C113.77 33.85 113.32 33.74 112.94 33.52C112.56 33.28 112.27 32.95 112.07 32.52Q111.77 31.88 111.77 31.02L111.77 24.36L109.38 24.36L109.38 31.13C109.38 31.88 109.5 32.56 109.72 33.16Q110 33.89 110.48 34.46Q110.59 34.59 110.71 34.72Q110.8 34.8 110.89 34.89Q111.47 35.4 112.25 35.71ZM76.23 35.63C76.66 35.85 77.16 35.96 77.75 35.96Q78.34 35.96 78.85 35.8C79.2 35.71 79.51 35.57 79.78 35.4L79.38 33.72C79.19 33.81 78.99 33.88 78.77 33.93C78.57 33.98 78.38 34.01 78.2 34.01C77.85 34.01 77.58 33.9 77.41 33.69C77.24 33.47 77.16 33.15 77.16 32.75L77.16 29.08L79.46 29.08L79.46 27.28L77.16 27.28L77.16 24.4L74.92 24.4L74.92 27.28L73.48 27.28L73.48 29.08L74.92 29.08L74.92 33.02Q74.92 33.96 75.25 34.62C75.49 35.06 75.81 35.39 76.23 35.63ZM101.18 35.63C101.61 35.85 102.12 35.96 102.7 35.96Q103.3 35.96 103.81 35.8C104.15 35.71 104.46 35.57 104.74 35.4L104.34 33.72C104.14 33.81 103.94 33.88 103.73 33.93C103.53 33.98 103.33 34.01 103.15 34.01C102.8 34.01 102.54 33.9 102.37 33.69C102.2 33.47 102.11 33.15 102.11 32.75L102.11 29.08L104.42 29.08L104.42 27.28L102.11 27.28L102.11 24.4L99.87 24.4L99.87 27.28L98.43 27.28L98.43 29.08L99.87 29.08L99.87 33.02Q99.87 33.96 100.21 34.62C100.44 35.06 100.77 35.39 101.18 35.63ZM57.16 35.63C57.69 35.85 58.27 35.96 58.9 35.96C59.54 35.96 60.13 35.85 60.66 35.63C61.2 35.4 61.67 35.09 62.07 34.68Q62.27 34.48 62.44 34.26Q62.79 33.8 63.01 33.26C63.24 32.72 63.35 32.12 63.35 31.48Q63.35 30.52 63.01 29.72C62.8 29.18 62.5 28.71 62.1 28.32C61.71 27.91 61.24 27.6 60.71 27.37C60.18 27.15 59.59 27.04 58.96 27.04C58.32 27.04 57.73 27.15 57.19 27.37C56.66 27.6 56.19 27.91 55.78 28.32Q55.64 28.46 55.52 28.61Q55.11 29.11 54.85 29.74C54.63 30.27 54.52 30.86 54.52 31.5C54.52 32.14 54.62 32.73 54.84 33.28C55.06 33.82 55.37 34.29 55.76 34.7Q55.92 34.85 56.09 34.99Q56.57 35.38 57.16 35.63ZM64.82 27.28L64.82 35.72L67.06 35.72L67.06 30.88Q67.06 30.38 67.26 29.98Q67.27 29.95 67.28 29.93C67.43 29.65 67.64 29.44 67.89 29.29C68.15 29.13 68.45 29.05 68.79 29.05Q69.21 29.05 69.53 29.24Q69.73 29.36 69.89 29.56C70.16 29.89 70.29 30.35 70.29 30.94L70.29 35.72L72.53 35.72L72.53 30.65C72.53 29.92 72.4 29.28 72.15 28.73C71.89 28.19 71.53 27.77 71.06 27.48C70.6 27.18 70.06 27.04 69.44 27.04Q68.71 27.04 68.12 27.32Q68.04 27.36 67.96 27.4C67.53 27.64 67.19 27.96 66.95 28.36L66.88 27.28L64.82 27.28ZM82.45 35.77C82.81 35.9 83.21 35.96 83.65 35.96C84.23 35.96 84.74 35.85 85.17 35.63C85.59 35.39 85.92 35.09 86.14 34.73L86.21 35.72L88.21 35.72L88.21 30.6C88.21 30.07 88.12 29.59 87.94 29.16C87.76 28.73 87.51 28.35 87.18 28.03C86.86 27.71 86.48 27.46 86.03 27.29C85.58 27.12 85.09 27.04 84.54 27.04C83.96 27.04 83.41 27.14 82.91 27.34C82.41 27.54 81.98 27.83 81.63 28.2C81.29 28.57 81.06 28.99 80.94 29.48L82.94 29.88C83.06 29.56 83.26 29.32 83.55 29.15Q83.72 29.04 83.9 28.98Q84.19 28.88 84.51 28.88Q85.03 28.88 85.38 29.11Q85.51 29.2 85.62 29.32C85.89 29.62 86.03 30.01 86.03 30.49L86.03 30.99Q85.58 30.81 85.1 30.72C84.79 30.65 84.46 30.62 84.11 30.62C83.42 30.62 82.81 30.74 82.29 30.97C81.76 31.2 81.36 31.51 81.07 31.92C80.78 32.32 80.64 32.79 80.64 33.32C80.64 33.71 80.71 34.06 80.86 34.38C81.01 34.7 81.22 34.98 81.49 35.23Q81.52 35.25 81.55 35.28Q81.94 35.59 82.45 35.77ZM92.24 35.65Q93.02 35.96 93.91 35.96C94.53 35.96 95.11 35.85 95.64 35.63C96.17 35.4 96.63 35.08 97 34.67C97.38 34.25 97.65 33.76 97.78 33.2L95.66 32.78C95.51 33.15 95.28 33.44 94.97 33.64C94.66 33.85 94.31 33.95 93.93 33.95C93.54 33.95 93.2 33.85 92.9 33.64C92.61 33.43 92.37 33.14 92.2 32.78C92.04 32.42 91.96 32 91.96 31.53C91.96 31.06 92.05 30.64 92.22 30.27C92.39 29.88 92.62 29.58 92.9 29.37C93.2 29.16 93.54 29.05 93.93 29.05Q94.22 29.05 94.47 29.14Q94.7 29.22 94.9 29.37C95.19 29.57 95.42 29.86 95.58 30.22L97.7 29.8C97.57 29.25 97.32 28.76 96.95 28.35C96.6 27.93 96.17 27.61 95.66 27.39C95.14 27.15 94.58 27.04 93.98 27.04C93.37 27.04 92.8 27.15 92.28 27.39Q91.93 27.54 91.62 27.75Q91.23 28 90.9 28.35C90.52 28.75 90.22 29.23 89.99 29.79Q89.67 30.6 89.67 31.56Q89.67 32.51 89.99 33.32C90.21 33.86 90.5 34.32 90.87 34.72C91.26 35.11 91.7 35.42 92.22 35.64Q92.23 35.65 92.24 35.65ZM122.35 35.68C122.84 35.87 123.39 35.96 123.99 35.96C124.49 35.96 124.95 35.89 125.36 35.75C125.78 35.62 126.14 35.42 126.45 35.16C126.76 34.91 126.99 34.61 127.15 34.27C127.32 33.93 127.41 33.55 127.41 33.13C127.41 32.45 127.17 31.89 126.69 31.45C126.21 31 125.52 30.7 124.61 30.54L124.16 30.46C123.66 30.37 123.3 30.26 123.09 30.12C122.89 29.97 122.79 29.79 122.79 29.58C122.79 29.33 122.89 29.13 123.11 28.97C123.32 28.81 123.59 28.73 123.92 28.73C124.24 28.73 124.52 28.82 124.75 29C125 29.18 125.18 29.44 125.28 29.76L127.28 29.34Q127.14 28.77 126.83 28.34Q126.74 28.22 126.64 28.11C126.33 27.77 125.94 27.5 125.47 27.32C125.02 27.13 124.5 27.04 123.94 27.04C123.3 27.04 122.73 27.15 122.24 27.39C121.75 27.62 121.37 27.95 121.09 28.36C120.81 28.77 120.67 29.24 120.67 29.77C120.67 30.44 120.91 31 121.38 31.44C121.86 31.87 122.56 32.17 123.47 32.33L123.92 32.41C124.4 32.5 124.74 32.62 124.95 32.78C125.16 32.93 125.27 33.12 125.27 33.36C125.27 33.63 125.15 33.85 124.91 34.01C124.68 34.17 124.38 34.25 124.02 34.25C123.63 34.25 123.3 34.16 123.03 33.96C122.75 33.77 122.56 33.51 122.45 33.18L120.43 33.61C120.56 34.09 120.79 34.51 121.12 34.86Q121.22 34.96 121.34 35.06Q121.78 35.44 122.35 35.68ZM60.02 33.63C59.7 33.84 59.34 33.95 58.93 33.95C58.53 33.95 58.16 33.84 57.84 33.63C57.52 33.41 57.27 33.13 57.08 32.76C56.9 32.39 56.8 31.97 56.8 31.5Q56.8 30.8 57.08 30.25C57.27 29.88 57.52 29.58 57.84 29.37C58.16 29.16 58.53 29.05 58.93 29.05C59.34 29.05 59.7 29.16 60.02 29.37C60.34 29.58 60.59 29.88 60.77 30.25C60.96 30.61 61.06 31.03 61.06 31.5Q61.06 32.19 60.79 32.74Q60.78 32.75 60.77 32.76C60.59 33.13 60.34 33.41 60.02 33.63ZM83.22 33.95C82.97 33.75 82.85 33.51 82.85 33.21Q82.85 32.99 82.93 32.81Q83.04 32.59 83.28 32.43C83.58 32.22 83.98 32.12 84.48 32.12C84.75 32.12 85.01 32.16 85.28 32.22C85.55 32.27 85.8 32.35 86.03 32.44L86.03 32.52C86.03 32.84 85.95 33.14 85.79 33.4C85.63 33.66 85.41 33.86 85.14 34.01C84.86 34.16 84.54 34.24 84.19 34.24C83.79 34.24 83.46 34.14 83.22 33.95Z" fill="#FFFFFF" fill-opacity="1.000000" fill-rule="evenodd"/>
</svg>
