<svg width="40.000000" height="41.290283" viewBox="0 0 40 41.2903" fill="none" xmlns="http://www.w3.org/2000/svg" xmlns:xlink="http://www.w3.org/1999/xlink">
	<desc>
			Created with Pixso.
	</desc>
	<defs>
		<clipPath id="clip1_491">
			<rect id="facebook-f" rx="0.000000" width="15.666668" height="16.204302" transform="translate(12.166626 12.542969)" fill="white" fill-opacity="0"/>
		</clipPath>
	</defs>
	<rect id="facebook-f" rx="0.000000" width="15.666668" height="16.204302" transform="translate(12.166626 12.542969)" fill="#000000" fill-opacity="0"/>
	<g clip-path="url(#clip1_491)">
		<path id="Vector" d="M23.87 21.72L24.34 18.6L21.44 18.6L21.44 16.58C21.44 15.73 21.85 14.9 23.14 14.9L24.46 14.9L24.46 12.25C24.46 12.25 23.26 12.04 22.12 12.04C19.74 12.04 18.18 13.53 18.18 16.23L18.18 18.6L15.53 18.6L15.53 21.72L18.18 21.72L18.18 29.24L21.44 29.24L21.44 21.72L23.87 21.72Z" fill="#697687" fill-opacity="1.000000" fill-rule="nonzero"/>
		<path id="Vector" d="M21.49 21.72L23.87 21.72L24.33 18.65L24.34 18.6L21.44 18.6L21.44 16.58C21.44 15.73 21.85 14.9 23.14 14.9L24.46 14.9L24.46 12.25C24.46 12.25 23.26 12.04 22.12 12.04C19.74 12.04 18.18 13.53 18.18 16.23L18.18 18.6L15.53 18.6L15.53 21.72L18.18 21.72L18.18 29.24L21.44 29.24L21.44 21.72L21.49 21.72ZM21.39 29.19L21.39 21.67L23.83 21.67L24.28 18.65L21.39 18.65L21.39 16.58C21.39 16.1 21.51 15.72 21.74 15.42C21.75 15.41 21.76 15.4 21.77 15.39C21.81 15.33 21.86 15.28 21.92 15.24C22.21 14.98 22.62 14.85 23.14 14.85L24.41 14.85L24.41 12.29C24.22 12.26 23.99 12.22 23.71 12.19C23.13 12.12 22.6 12.09 22.12 12.09C21.53 12.09 21 12.18 20.52 12.36C20.16 12.49 19.84 12.68 19.56 12.91C19.47 12.99 19.38 13.07 19.29 13.15C19.28 13.17 19.27 13.18 19.25 13.2C18.93 13.54 18.68 13.96 18.51 14.45C18.32 14.98 18.23 15.57 18.23 16.23L18.23 18.65L15.58 18.65L15.58 21.67L18.23 21.67L18.23 29.19L21.39 29.19Z" fill="#697687" fill-opacity="1.000000" fill-rule="evenodd"/>
	</g>
	<rect id="Rectangle 68" x="0.500000" y="0.500000" rx="19.500000" width="39.000000" height="40.290321" stroke="#697687" stroke-opacity="1.000000" stroke-width="1.000000"/>
</svg>
