<svg width="50.000000" height="50.000000" viewBox="0 0 50 50" fill="none" xmlns="http://www.w3.org/2000/svg" xmlns:xlink="http://www.w3.org/1999/xlink">
	<desc>
			Created with Pixso.
	</desc>
	<defs/>
	<rect id="Rectangle 11" x="50.000000" y="50.000000" rx="5.000000" width="50.000004" height="49.999996" transform="rotate(-180 50.000000 50.000000)" fill="#3685FB" fill-opacity="1.000000"/>
	<path id="Vector" d="M21.43 17.44C21.15 17.73 21 18.11 21 18.51C21 18.92 21.15 19.3 21.43 19.58L26.72 25.03L21.43 30.41C21.15 30.69 21 31.08 21 31.48C21 31.88 21.15 32.26 21.43 32.55C21.57 32.69 21.73 32.8 21.92 32.88C22.1 32.96 22.29 33 22.49 33C22.69 33 22.88 32.96 23.06 32.88C23.25 32.8 23.41 32.69 23.55 32.55L29.88 26.11C30.02 25.97 30.13 25.8 30.21 25.62C30.29 25.43 30.33 25.23 30.33 25.03C30.33 24.83 30.29 24.63 30.21 24.45C30.13 24.26 30.02 24.1 29.88 23.96L23.55 17.44C23.41 17.3 23.25 17.19 23.06 17.11C22.88 17.03 22.69 17 22.49 17C22.29 17 22.1 17.03 21.92 17.11C21.73 17.19 21.57 17.3 21.43 17.44Z" fill="#FCFCFC" fill-opacity="1.000000" fill-rule="nonzero"/>
</svg>
