<svg width="140.000000" height="115.872925" viewBox="0 0 140 115.873" fill="none" xmlns="http://www.w3.org/2000/svg" xmlns:xlink="http://www.w3.org/1999/xlink">
	<desc>
			Created with Pixso.
	</desc>
	<defs>
		<filter id="filter_1_107_dd" x="18.534912" y="43.328125" width="67.853027" height="67.853027" filterUnits="userSpaceOnUse" color-interpolation-filters="sRGB">
			<feFlood flood-opacity="0" result="BackgroundImageFix"/>
			<feBlend mode="normal" in="SourceGraphic" in2="BackgroundImageFix" result="shape"/>
			<feGaussianBlur stdDeviation="6.66667" result="effect_layerBlur_1"/>
		</filter>
		<filter id="filter_1_110_dd" x="42.378448" y="9.754395" width="90.488739" height="92.171387" filterUnits="userSpaceOnUse" color-interpolation-filters="sRGB">
			<feFlood flood-opacity="0" result="BackgroundImageFix"/>
			<feGaussianBlur in="BackgroundImage" stdDeviation="8"/>
			<feComposite in2="SourceAlpha" operator="in" result="effect_backgroundBlur_1"/>
			<feBlend mode="normal" in="SourceGraphic" in2="effect_backgroundBlur_1" result="shape"/>
		</filter>
		<linearGradient x1="13.580288" y1="66.853920" x2="132.301819" y2="88.001823" id="paint_linear_1_106_0" gradientUnits="userSpaceOnUse">
			<stop stop-color="#FFA78F"/>
			<stop offset="1.000000" stop-color="#F23E2C"/>
		</linearGradient>
		<linearGradient x1="63.487000" y1="13.271667" x2="102.942886" y2="93.551041" id="paint_linear_1_110_0" gradientUnits="userSpaceOnUse">
			<stop stop-color="#FFFFFF" stop-opacity="0.250980"/>
			<stop offset="1.000000" stop-color="#FFFFFF" stop-opacity="0.000000"/>
		</linearGradient>
	</defs>
	<g style="mix-blend-mode:normal">
		<path id="Star" d="M67.94 72.26C67.38 73.42 67.42 74.78 68.05 75.91L77.06 91.34C77.83 92.65 77.75 94.29 76.87 95.52C76.03 96.78 74.54 97.44 73.04 97.22L55.34 94.89C54.72 94.8 54.09 94.86 53.5 95.06L52.59 95.39C52.29 95.55 52.02 95.77 51.79 96.02L39.75 109.24C39.15 109.88 38.37 110.32 37.5 110.48C35.38 110.83 33.36 109.42 32.96 107.3L29.92 89.69C29.68 88.41 28.83 87.33 27.65 86.79L11.24 79.45C9.86 78.84 8.97 77.49 8.95 75.99C8.92 74.49 9.71 73.1 11.02 72.38L26.83 63.87C28.05 63.28 28.88 62.1 29.04 60.75L30.9 42.99C30.95 42.59 31.06 42.2 31.24 41.83L31.46 41.49C31.55 41.26 31.68 41.05 31.84 40.85L32.16 40.59L32.64 40.14L34.05 39.63C35.37 39.3 36.75 39.65 37.75 40.57L50.67 52.86C51.61 53.77 52.93 54.15 54.21 53.89L71.78 50.23C73.27 49.92 74.8 50.46 75.76 51.64C76.69 52.82 76.85 54.44 76.17 55.79L67.94 72.26Z" fill="url(#paint_linear_1_106_0)" fill-opacity="1.000000" fill-rule="nonzero"/>
	</g>
	<g opacity="0.500000" filter="url(#filter_1_107_dd)">
		<path id="Blur" d="M52.4614 63.3281C44.774 63.3281 38.5349 69.5686 38.5349 77.2546C38.5349 84.9435 44.774 91.1812 52.4614 91.1812C60.1628 91.1812 66.3879 84.9435 66.3879 77.2546C66.3879 69.5686 60.1628 63.3281 52.4614 63.3281Z" clip-rule="evenodd" fill="#FF3D22" fill-opacity="1.000000" fill-rule="evenodd"/>
	</g>
	<g filter="url(#filter_1_110_dd)">
		<path id="Star" d="M108.93 69.66C107.51 70.48 106.59 71.95 106.45 73.58L104.93 96.23C104.79 98.15 103.55 99.81 101.75 100.49C99.97 101.21 97.93 100.84 96.51 99.55L79.56 84.47C78.97 83.94 78.27 83.56 77.5 83.34L76.31 83.04C75.88 83 75.44 83.03 75.02 83.14L52.94 88.46C51.86 88.7 50.72 88.6 49.7 88.16C47.21 87.01 46.1 84.09 47.18 81.58L56.55 60.89C57.2 59.38 57.08 57.64 56.22 56.23L44.2 36.82C43.19 35.2 43.21 33.14 44.26 31.55C45.29 29.95 47.12 29.06 49.01 29.23L71.69 31.55C73.4 31.8 75.11 31.15 76.24 29.85L90.85 12.5C91.19 12.11 91.59 11.78 92.03 11.53L92.51 11.32C92.77 11.14 93.06 11.01 93.36 10.93L93.88 10.87L94.71 10.75L96.56 11.22C98.18 11.8 99.38 13.16 99.77 14.83L104.6 36.97C104.94 38.59 106.06 39.93 107.58 40.57L128.67 49.25C130.45 49.98 131.68 51.64 131.85 53.56C131.98 55.47 131 57.28 129.32 58.21L108.93 69.66Z" fill="#FFAC95" fill-opacity="0.400000" fill-rule="nonzero"/>
		<path id="Star" d="M107.45 73.66L107.45 73.66Q107.54 72.59 108.05 71.8Q108.54 71.04 109.42 70.53L129.81 59.09Q131.45 58.17 132.21 56.78Q132.98 55.37 132.84 53.47Q132.68 51.6 131.73 50.31Q130.78 49.03 129.05 48.32L107.97 39.65Q106.99 39.24 106.39 38.51Q105.8 37.79 105.58 36.76L100.75 14.6Q100.38 13.01 99.43 11.94Q98.46 10.84 96.91 10.28Q96.88 10.27 96.86 10.26Q96.83 10.25 96.81 10.25L94.95 9.78Q94.86 9.76 94.76 9.75Q94.66 9.75 94.56 9.76L93.76 9.88L93.25 9.93Q93.21 9.94 93.17 9.94Q93.12 9.95 93.08 9.96Q92.6 10.1 92.18 10.34Q92.11 10.39 92.03 10.44L91.63 10.61Q91.6 10.62 91.58 10.64Q91.56 10.65 91.53 10.66Q91.46 10.7 91.39 10.74Q90.68 11.18 90.1 11.83Q90.1 11.84 90.09 11.84Q90.09 11.85 90.09 11.85L75.48 29.19Q74.75 30.04 73.84 30.38Q72.93 30.72 71.83 30.56Q71.82 30.56 71.81 30.56Q71.8 30.56 71.79 30.56L49.1 28.23Q47.26 28.07 45.84 28.76Q44.42 29.45 43.43 31Q42.4 32.57 42.37 34.15Q42.35 35.74 43.35 37.35L55.37 56.75Q55.93 57.67 55.99 58.62Q56.05 59.53 55.64 60.48L46.26 81.18Q45.78 82.31 45.75 83.45Q45.73 84.59 46.17 85.74Q46.61 86.89 47.39 87.72Q48.16 88.55 49.28 89.07Q49.28 89.07 49.28 89.07Q49.29 89.07 49.3 89.08Q50.18 89.45 51.09 89.55Q52.11 89.67 53.18 89.43L75.27 84.11Q75.35 84.09 75.43 84.07Q75.78 84 76.14 84.03L77.24 84.31Q77.8 84.47 78.27 84.76Q78.6 84.96 78.89 85.22L95.83 100.29Q97.24 101.57 98.82 101.84Q100.38 102.12 102.11 101.42Q103.89 100.75 104.84 99.47Q105.79 98.19 105.92 96.3L107.45 73.66ZM101.75 100.49C103.55 99.81 104.79 98.15 104.93 96.23L106.45 73.58C106.59 71.95 107.51 70.48 108.93 69.66L129.32 58.21C131 57.28 131.98 55.47 131.85 53.56C131.68 51.64 130.45 49.98 128.67 49.25L107.58 40.57C106.06 39.93 104.94 38.59 104.6 36.97L99.77 14.83C99.38 13.16 98.18 11.8 96.56 11.22L94.71 10.75L93.88 10.87L93.36 10.93C93.06 11.01 92.77 11.14 92.51 11.32L92.03 11.53C91.59 11.78 91.19 12.11 90.85 12.5L76.24 29.85C75.11 31.15 73.4 31.8 71.69 31.55L49.01 29.23C47.12 29.06 45.29 29.95 44.26 31.55C43.21 33.14 43.19 35.2 44.2 36.82L56.22 56.23C57.08 57.64 57.2 59.38 56.55 60.89L47.18 81.58C46.1 84.09 47.21 87.01 49.7 88.16C50.72 88.6 51.86 88.7 52.94 88.46L75.02 83.14C75.44 83.03 75.88 83 76.31 83.04L77.5 83.34C78.27 83.56 78.97 83.94 79.56 84.47L96.51 99.55C97.93 100.84 99.97 101.21 101.75 100.49Z" fill="url(#paint_linear_1_110_0)" fill-opacity="1.000000" fill-rule="evenodd"/>
	</g>
</svg>
